<xmeml version="5"><project><children><sequence><name>Beat Markers Sequence</name><duration>180000</duration><media><video><format><samplecharacteristics><rate>30</rate><codec>Placeholder Codec</codec></samplecharacteristics></format><track><clipitem><name>Beat 1</name><duration>100</duration><in>0.0</in><out>100.0</out><start>0.0</start><end>100.0</end><marker><comment>Beat marker</comment><in>0.0</in><out>0.0</out></marker></clipitem><clipitem><name>Beat 2</name><duration>100</duration><in>400.0</in><out>500.0</out><start>400.0</start><end>500.0</end><marker><comment>Beat marker</comment><in>400.0</in><out>400.0</out></marker></clipitem><clipitem><name>Beat 3</name><duration>100</duration><in>800.0</in><out>900.0</out><start>800.0</start><end>900.0</end><marker><comment>Beat marker</comment><in>800.0</in><out>800.0</out></marker></clipitem><clipitem><name>Beat 4</name><duration>100</duration><in>1200.0</in><out>1300.0</out><start>1200.0</start><end>1300.0</end><marker><comment>Beat marker</comment><in>1200.0</in><out>1200.0</out></marker></clipitem><clipitem><name>Beat 5</name><duration>100</duration><in>1600.0</in><out>1700.0</out><start>1600.0</start><end>1700.0</end><marker><comment>Beat marker</comment><in>1600.0</in><out>1600.0</out></marker></clipitem><clipitem><name>Beat 6</name><duration>100</duration><in>2000.0</in><out>2100.0</out><start>2000.0</start><end>2100.0</end><marker><comment>Beat marker</comment><in>2000.0</in><out>2000.0</out></marker></clipitem><clipitem><name>Beat 7</name><duration>100</duration><in>2400.0</in><out>2500.0</out><start>2400.0</start><end>2500.0</end><marker><comment>Beat marker</comment><in>2400.0</in><out>2400.0</out></marker></clipitem><clipitem><name>Beat 8</name><duration>100</duration><in>2800.0</in><out>2900.0</out><start>2800.0</start><end>2900.0</end><marker><comment>Beat marker</comment><in>2800.0</in><out>2800.0</out></marker></clipitem><clipitem><name>Beat 9</name><duration>100</duration><in>3200.0</in><out>3300.0</out><start>3200.0</start><end>3300.0</end><marker><comment>Beat marker</comment><in>3200.0</in><out>3200.0</out></marker></clipitem><clipitem><name>Beat 10</name><duration>100</duration><in>3600.0</in><out>3700.0</out><start>3600.0</start><end>3700.0</end><marker><comment>Beat marker</comment><in>3600.0</in><out>3600.0</out></marker></clipitem><clipitem><name>Beat 11</name><duration>100</duration><in>4000.0</in><out>4100.0</out><start>4000.0</start><end>4100.0</end><marker><comment>Beat marker</comment><in>4000.0</in><out>4000.0</out></marker></clipitem><clipitem><name>Beat 12</name><duration>100</duration><in>4400.0</in><out>4500.0</out><start>4400.0</start><end>4500.0</end><marker><comment>Beat marker</comment><in>4400.0</in><out>4400.0</out></marker></clipitem><clipitem><name>Beat 13</name><duration>100</duration><in>4800.0</in><out>4900.0</out><start>4800.0</start><end>4900.0</end><marker><comment>Beat marker</comment><in>4800.0</in><out>4800.0</out></marker></clipitem><clipitem><name>Beat 14</name><duration>100</duration><in>5200.0</in><out>5300.0</out><start>5200.0</start><end>5300.0</end><marker><comment>Beat marker</comment><in>5200.0</in><out>5200.0</out></marker></clipitem><clipitem><name>Beat 15</name><duration>100</duration><in>5600.0</in><out>5700.0</out><start>5600.0</start><end>5700.0</end><marker><comment>Beat marker</comment><in>5600.0</in><out>5600.0</out></marker></clipitem><clipitem><name>Beat 16</name><duration>100</duration><in>6000.0</in><out>6100.0</out><start>6000.0</start><end>6100.0</end><marker><comment>Beat marker</comment><in>6000.0</in><out>6000.0</out></marker></clipitem><clipitem><name>Beat 17</name><duration>100</duration><in>6400.0</in><out>6500.0</out><start>6400.0</start><end>6500.0</end><marker><comment>Beat marker</comment><in>6400.0</in><out>6400.0</out></marker></clipitem><clipitem><name>Beat 18</name><duration>100</duration><in>6800.0</in><out>6900.0</out><start>6800.0</start><end>6900.0</end><marker><comment>Beat marker</comment><in>6800.0</in><out>6800.0</out></marker></clipitem><clipitem><name>Beat 19</name><duration>100</duration><in>7200.0</in><out>7300.0</out><start>7200.0</start><end>7300.0</end><marker><comment>Beat marker</comment><in>7200.0</in><out>7200.0</out></marker></clipitem><clipitem><name>Beat 20</name><duration>100</duration><in>7600.0</in><out>7700.0</out><start>7600.0</start><end>7700.0</end><marker><comment>Beat marker</comment><in>7600.0</in><out>7600.0</out></marker></clipitem><clipitem><name>Beat 21</name><duration>100</duration><in>8000.0</in><out>8100.0</out><start>8000.0</start><end>8100.0</end><marker><comment>Beat marker</comment><in>8000.0</in><out>8000.0</out></marker></clipitem><clipitem><name>Beat 22</name><duration>100</duration><in>8400.0</in><out>8500.0</out><start>8400.0</start><end>8500.0</end><marker><comment>Beat marker</comment><in>8400.0</in><out>8400.0</out></marker></clipitem><clipitem><name>Beat 23</name><duration>100</duration><in>8800.0</in><out>8900.0</out><start>8800.0</start><end>8900.0</end><marker><comment>Beat marker</comment><in>8800.0</in><out>8800.0</out></marker></clipitem><clipitem><name>Beat 24</name><duration>100</duration><in>9200.0</in><out>9300.0</out><start>9200.0</start><end>9300.0</end><marker><comment>Beat marker</comment><in>9200.0</in><out>9200.0</out></marker></clipitem><clipitem><name>Beat 25</name><duration>100</duration><in>9600.0</in><out>9700.0</out><start>9600.0</start><end>9700.0</end><marker><comment>Beat marker</comment><in>9600.0</in><out>9600.0</out></marker></clipitem><clipitem><name>Beat 26</name><duration>100</duration><in>10000.0</in><out>10100.0</out><start>10000.0</start><end>10100.0</end><marker><comment>Beat marker</comment><in>10000.0</in><out>10000.0</out></marker></clipitem><clipitem><name>Beat 27</name><duration>100</duration><in>10400.0</in><out>10500.0</out><start>10400.0</start><end>10500.0</end><marker><comment>Beat marker</comment><in>10400.0</in><out>10400.0</out></marker></clipitem><clipitem><name>Beat 28</name><duration>100</duration><in>10800.0</in><out>10900.0</out><start>10800.0</start><end>10900.0</end><marker><comment>Beat marker</comment><in>10800.0</in><out>10800.0</out></marker></clipitem><clipitem><name>Beat 29</name><duration>100</duration><in>11200.0</in><out>11300.0</out><start>11200.0</start><end>11300.0</end><marker><comment>Beat marker</comment><in>11200.0</in><out>11200.0</out></marker></clipitem><clipitem><name>Beat 30</name><duration>100</duration><in>11600.0</in><out>11700.0</out><start>11600.0</start><end>11700.0</end><marker><comment>Beat marker</comment><in>11600.0</in><out>11600.0</out></marker></clipitem><clipitem><name>Beat 31</name><duration>100</duration><in>12000.0</in><out>12100.0</out><start>12000.0</start><end>12100.0</end><marker><comment>Beat marker</comment><in>12000.0</in><out>12000.0</out></marker></clipitem><clipitem><name>Beat 32</name><duration>100</duration><in>12400.0</in><out>12500.0</out><start>12400.0</start><end>12500.0</end><marker><comment>Beat marker</comment><in>12400.0</in><out>12400.0</out></marker></clipitem><clipitem><name>Beat 33</name><duration>100</duration><in>12800.0</in><out>12900.0</out><start>12800.0</start><end>12900.0</end><marker><comment>Beat marker</comment><in>12800.0</in><out>12800.0</out></marker></clipitem><clipitem><name>Beat 34</name><duration>100</duration><in>13200.0</in><out>13300.0</out><start>13200.0</start><end>13300.0</end><marker><comment>Beat marker</comment><in>13200.0</in><out>13200.0</out></marker></clipitem><clipitem><name>Beat 35</name><duration>100</duration><in>13600.0</in><out>13700.0</out><start>13600.0</start><end>13700.0</end><marker><comment>Beat marker</comment><in>13600.0</in><out>13600.0</out></marker></clipitem><clipitem><name>Beat 36</name><duration>100</duration><in>14000.0</in><out>14100.0</out><start>14000.0</start><end>14100.0</end><marker><comment>Beat marker</comment><in>14000.0</in><out>14000.0</out></marker></clipitem><clipitem><name>Beat 37</name><duration>100</duration><in>14400.0</in><out>14500.0</out><start>14400.0</start><end>14500.0</end><marker><comment>Beat marker</comment><in>14400.0</in><out>14400.0</out></marker></clipitem><clipitem><name>Beat 38</name><duration>100</duration><in>14800.0</in><out>14900.0</out><start>14800.0</start><end>14900.0</end><marker><comment>Beat marker</comment><in>14800.0</in><out>14800.0</out></marker></clipitem><clipitem><name>Beat 39</name><duration>100</duration><in>15200.0</in><out>15300.0</out><start>15200.0</start><end>15300.0</end><marker><comment>Beat marker</comment><in>15200.0</in><out>15200.0</out></marker></clipitem><clipitem><name>Beat 40</name><duration>100</duration><in>15600.0</in><out>15700.0</out><start>15600.0</start><end>15700.0</end><marker><comment>Beat marker</comment><in>15600.0</in><out>15600.0</out></marker></clipitem><clipitem><name>Beat 41</name><duration>100</duration><in>16000.0</in><out>16100.0</out><start>16000.0</start><end>16100.0</end><marker><comment>Beat marker</comment><in>16000.0</in><out>16000.0</out></marker></clipitem><clipitem><name>Beat 42</name><duration>100</duration><in>16400.0</in><out>16500.0</out><start>16400.0</start><end>16500.0</end><marker><comment>Beat marker</comment><in>16400.0</in><out>16400.0</out></marker></clipitem><clipitem><name>Beat 43</name><duration>100</duration><in>16800.0</in><out>16900.0</out><start>16800.0</start><end>16900.0</end><marker><comment>Beat marker</comment><in>16800.0</in><out>16800.0</out></marker></clipitem><clipitem><name>Beat 44</name><duration>100</duration><in>17200.0</in><out>17300.0</out><start>17200.0</start><end>17300.0</end><marker><comment>Beat marker</comment><in>17200.0</in><out>17200.0</out></marker></clipitem><clipitem><name>Beat 45</name><duration>100</duration><in>17600.0</in><out>17700.0</out><start>17600.0</start><end>17700.0</end><marker><comment>Beat marker</comment><in>17600.0</in><out>17600.0</out></marker></clipitem><clipitem><name>Beat 46</name><duration>100</duration><in>18000.0</in><out>18100.0</out><start>18000.0</start><end>18100.0</end><marker><comment>Beat marker</comment><in>18000.0</in><out>18000.0</out></marker></clipitem><clipitem><name>Beat 47</name><duration>100</duration><in>18400.0</in><out>18500.0</out><start>18400.0</start><end>18500.0</end><marker><comment>Beat marker</comment><in>18400.0</in><out>18400.0</out></marker></clipitem><clipitem><name>Beat 48</name><duration>100</duration><in>18800.0</in><out>18900.0</out><start>18800.0</start><end>18900.0</end><marker><comment>Beat marker</comment><in>18800.0</in><out>18800.0</out></marker></clipitem><clipitem><name>Beat 49</name><duration>100</duration><in>19200.0</in><out>19300.0</out><start>19200.0</start><end>19300.0</end><marker><comment>Beat marker</comment><in>19200.0</in><out>19200.0</out></marker></clipitem><clipitem><name>Beat 50</name><duration>100</duration><in>19600.0</in><out>19700.0</out><start>19600.0</start><end>19700.0</end><marker><comment>Beat marker</comment><in>19600.0</in><out>19600.0</out></marker></clipitem><clipitem><name>Beat 51</name><duration>100</duration><in>20000.0</in><out>20100.0</out><start>20000.0</start><end>20100.0</end><marker><comment>Beat marker</comment><in>20000.0</in><out>20000.0</out></marker></clipitem><clipitem><name>Beat 52</name><duration>100</duration><in>20400.0</in><out>20500.0</out><start>20400.0</start><end>20500.0</end><marker><comment>Beat marker</comment><in>20400.0</in><out>20400.0</out></marker></clipitem><clipitem><name>Beat 53</name><duration>100</duration><in>20800.0</in><out>20900.0</out><start>20800.0</start><end>20900.0</end><marker><comment>Beat marker</comment><in>20800.0</in><out>20800.0</out></marker></clipitem><clipitem><name>Beat 54</name><duration>100</duration><in>21200.0</in><out>21300.0</out><start>21200.0</start><end>21300.0</end><marker><comment>Beat marker</comment><in>21200.0</in><out>21200.0</out></marker></clipitem><clipitem><name>Beat 55</name><duration>100</duration><in>21600.0</in><out>21700.0</out><start>21600.0</start><end>21700.0</end><marker><comment>Beat marker</comment><in>21600.0</in><out>21600.0</out></marker></clipitem><clipitem><name>Beat 56</name><duration>100</duration><in>22000.0</in><out>22100.0</out><start>22000.0</start><end>22100.0</end><marker><comment>Beat marker</comment><in>22000.0</in><out>22000.0</out></marker></clipitem><clipitem><name>Beat 57</name><duration>100</duration><in>22400.0</in><out>22500.0</out><start>22400.0</start><end>22500.0</end><marker><comment>Beat marker</comment><in>22400.0</in><out>22400.0</out></marker></clipitem><clipitem><name>Beat 58</name><duration>100</duration><in>22800.0</in><out>22900.0</out><start>22800.0</start><end>22900.0</end><marker><comment>Beat marker</comment><in>22800.0</in><out>22800.0</out></marker></clipitem><clipitem><name>Beat 59</name><duration>100</duration><in>23200.0</in><out>23300.0</out><start>23200.0</start><end>23300.0</end><marker><comment>Beat marker</comment><in>23200.0</in><out>23200.0</out></marker></clipitem><clipitem><name>Beat 60</name><duration>100</duration><in>23600.0</in><out>23700.0</out><start>23600.0</start><end>23700.0</end><marker><comment>Beat marker</comment><in>23600.0</in><out>23600.0</out></marker></clipitem><clipitem><name>Beat 61</name><duration>100</duration><in>24000.0</in><out>24100.0</out><start>24000.0</start><end>24100.0</end><marker><comment>Beat marker</comment><in>24000.0</in><out>24000.0</out></marker></clipitem><clipitem><name>Beat 62</name><duration>100</duration><in>24400.0</in><out>24500.0</out><start>24400.0</start><end>24500.0</end><marker><comment>Beat marker</comment><in>24400.0</in><out>24400.0</out></marker></clipitem><clipitem><name>Beat 63</name><duration>100</duration><in>24800.0</in><out>24900.0</out><start>24800.0</start><end>24900.0</end><marker><comment>Beat marker</comment><in>24800.0</in><out>24800.0</out></marker></clipitem><clipitem><name>Beat 64</name><duration>100</duration><in>25200.0</in><out>25300.0</out><start>25200.0</start><end>25300.0</end><marker><comment>Beat marker</comment><in>25200.0</in><out>25200.0</out></marker></clipitem><clipitem><name>Beat 65</name><duration>100</duration><in>25600.0</in><out>25700.0</out><start>25600.0</start><end>25700.0</end><marker><comment>Beat marker</comment><in>25600.0</in><out>25600.0</out></marker></clipitem><clipitem><name>Beat 66</name><duration>100</duration><in>26000.0</in><out>26100.0</out><start>26000.0</start><end>26100.0</end><marker><comment>Beat marker</comment><in>26000.0</in><out>26000.0</out></marker></clipitem><clipitem><name>Beat 67</name><duration>100</duration><in>26400.0</in><out>26500.0</out><start>26400.0</start><end>26500.0</end><marker><comment>Beat marker</comment><in>26400.0</in><out>26400.0</out></marker></clipitem><clipitem><name>Beat 68</name><duration>100</duration><in>26800.0</in><out>26900.0</out><start>26800.0</start><end>26900.0</end><marker><comment>Beat marker</comment><in>26800.0</in><out>26800.0</out></marker></clipitem><clipitem><name>Beat 69</name><duration>100</duration><in>27200.0</in><out>27300.0</out><start>27200.0</start><end>27300.0</end><marker><comment>Beat marker</comment><in>27200.0</in><out>27200.0</out></marker></clipitem><clipitem><name>Beat 70</name><duration>100</duration><in>27600.0</in><out>27700.0</out><start>27600.0</start><end>27700.0</end><marker><comment>Beat marker</comment><in>27600.0</in><out>27600.0</out></marker></clipitem><clipitem><name>Beat 71</name><duration>100</duration><in>28000.0</in><out>28100.0</out><start>28000.0</start><end>28100.0</end><marker><comment>Beat marker</comment><in>28000.0</in><out>28000.0</out></marker></clipitem><clipitem><name>Beat 72</name><duration>100</duration><in>28400.0</in><out>28500.0</out><start>28400.0</start><end>28500.0</end><marker><comment>Beat marker</comment><in>28400.0</in><out>28400.0</out></marker></clipitem><clipitem><name>Beat 73</name><duration>100</duration><in>28800.0</in><out>28900.0</out><start>28800.0</start><end>28900.0</end><marker><comment>Beat marker</comment><in>28800.0</in><out>28800.0</out></marker></clipitem><clipitem><name>Beat 74</name><duration>100</duration><in>29200.0</in><out>29300.0</out><start>29200.0</start><end>29300.0</end><marker><comment>Beat marker</comment><in>29200.0</in><out>29200.0</out></marker></clipitem><clipitem><name>Beat 75</name><duration>100</duration><in>29600.0</in><out>29700.0</out><start>29600.0</start><end>29700.0</end><marker><comment>Beat marker</comment><in>29600.0</in><out>29600.0</out></marker></clipitem><clipitem><name>Beat 76</name><duration>100</duration><in>30000.0</in><out>30100.0</out><start>30000.0</start><end>30100.0</end><marker><comment>Beat marker</comment><in>30000.0</in><out>30000.0</out></marker></clipitem><clipitem><name>Beat 77</name><duration>100</duration><in>30400.0</in><out>30500.0</out><start>30400.0</start><end>30500.0</end><marker><comment>Beat marker</comment><in>30400.0</in><out>30400.0</out></marker></clipitem><clipitem><name>Beat 78</name><duration>100</duration><in>30800.0</in><out>30900.0</out><start>30800.0</start><end>30900.0</end><marker><comment>Beat marker</comment><in>30800.0</in><out>30800.0</out></marker></clipitem><clipitem><name>Beat 79</name><duration>100</duration><in>31200.0</in><out>31300.0</out><start>31200.0</start><end>31300.0</end><marker><comment>Beat marker</comment><in>31200.0</in><out>31200.0</out></marker></clipitem><clipitem><name>Beat 80</name><duration>100</duration><in>31600.0</in><out>31700.0</out><start>31600.0</start><end>31700.0</end><marker><comment>Beat marker</comment><in>31600.0</in><out>31600.0</out></marker></clipitem><clipitem><name>Beat 81</name><duration>100</duration><in>32000.0</in><out>32100.0</out><start>32000.0</start><end>32100.0</end><marker><comment>Beat marker</comment><in>32000.0</in><out>32000.0</out></marker></clipitem><clipitem><name>Beat 82</name><duration>100</duration><in>32400.0</in><out>32500.0</out><start>32400.0</start><end>32500.0</end><marker><comment>Beat marker</comment><in>32400.0</in><out>32400.0</out></marker></clipitem><clipitem><name>Beat 83</name><duration>100</duration><in>32800.0</in><out>32900.0</out><start>32800.0</start><end>32900.0</end><marker><comment>Beat marker</comment><in>32800.0</in><out>32800.0</out></marker></clipitem><clipitem><name>Beat 84</name><duration>100</duration><in>33200.0</in><out>33300.0</out><start>33200.0</start><end>33300.0</end><marker><comment>Beat marker</comment><in>33200.0</in><out>33200.0</out></marker></clipitem><clipitem><name>Beat 85</name><duration>100</duration><in>33600.0</in><out>33700.0</out><start>33600.0</start><end>33700.0</end><marker><comment>Beat marker</comment><in>33600.0</in><out>33600.0</out></marker></clipitem><clipitem><name>Beat 86</name><duration>100</duration><in>34000.0</in><out>34100.0</out><start>34000.0</start><end>34100.0</end><marker><comment>Beat marker</comment><in>34000.0</in><out>34000.0</out></marker></clipitem><clipitem><name>Beat 87</name><duration>100</duration><in>34400.0</in><out>34500.0</out><start>34400.0</start><end>34500.0</end><marker><comment>Beat marker</comment><in>34400.0</in><out>34400.0</out></marker></clipitem><clipitem><name>Beat 88</name><duration>100</duration><in>34800.0</in><out>34900.0</out><start>34800.0</start><end>34900.0</end><marker><comment>Beat marker</comment><in>34800.0</in><out>34800.0</out></marker></clipitem><clipitem><name>Beat 89</name><duration>100</duration><in>35200.0</in><out>35300.0</out><start>35200.0</start><end>35300.0</end><marker><comment>Beat marker</comment><in>35200.0</in><out>35200.0</out></marker></clipitem><clipitem><name>Beat 90</name><duration>100</duration><in>35600.0</in><out>35700.0</out><start>35600.0</start><end>35700.0</end><marker><comment>Beat marker</comment><in>35600.0</in><out>35600.0</out></marker></clipitem><clipitem><name>Beat 91</name><duration>100</duration><in>36000.0</in><out>36100.0</out><start>36000.0</start><end>36100.0</end><marker><comment>Beat marker</comment><in>36000.0</in><out>36000.0</out></marker></clipitem><clipitem><name>Beat 92</name><duration>100</duration><in>36400.0</in><out>36500.0</out><start>36400.0</start><end>36500.0</end><marker><comment>Beat marker</comment><in>36400.0</in><out>36400.0</out></marker></clipitem><clipitem><name>Beat 93</name><duration>100</duration><in>36800.0</in><out>36900.0</out><start>36800.0</start><end>36900.0</end><marker><comment>Beat marker</comment><in>36800.0</in><out>36800.0</out></marker></clipitem><clipitem><name>Beat 94</name><duration>100</duration><in>37200.0</in><out>37300.0</out><start>37200.0</start><end>37300.0</end><marker><comment>Beat marker</comment><in>37200.0</in><out>37200.0</out></marker></clipitem><clipitem><name>Beat 95</name><duration>100</duration><in>37600.0</in><out>37700.0</out><start>37600.0</start><end>37700.0</end><marker><comment>Beat marker</comment><in>37600.0</in><out>37600.0</out></marker></clipitem><clipitem><name>Beat 96</name><duration>100</duration><in>38000.0</in><out>38100.0</out><start>38000.0</start><end>38100.0</end><marker><comment>Beat marker</comment><in>38000.0</in><out>38000.0</out></marker></clipitem><clipitem><name>Beat 97</name><duration>100</duration><in>38400.0</in><out>38500.0</out><start>38400.0</start><end>38500.0</end><marker><comment>Beat marker</comment><in>38400.0</in><out>38400.0</out></marker></clipitem><clipitem><name>Beat 98</name><duration>100</duration><in>38800.0</in><out>38900.0</out><start>38800.0</start><end>38900.0</end><marker><comment>Beat marker</comment><in>38800.0</in><out>38800.0</out></marker></clipitem><clipitem><name>Beat 99</name><duration>100</duration><in>39200.0</in><out>39300.0</out><start>39200.0</start><end>39300.0</end><marker><comment>Beat marker</comment><in>39200.0</in><out>39200.0</out></marker></clipitem><clipitem><name>Beat 100</name><duration>100</duration><in>39600.0</in><out>39700.0</out><start>39600.0</start><end>39700.0</end><marker><comment>Beat marker</comment><in>39600.0</in><out>39600.0</out></marker></clipitem><clipitem><name>Beat 101</name><duration>100</duration><in>40000.0</in><out>40100.0</out><start>40000.0</start><end>40100.0</end><marker><comment>Beat marker</comment><in>40000.0</in><out>40000.0</out></marker></clipitem><clipitem><name>Beat 102</name><duration>100</duration><in>40400.0</in><out>40500.0</out><start>40400.0</start><end>40500.0</end><marker><comment>Beat marker</comment><in>40400.0</in><out>40400.0</out></marker></clipitem><clipitem><name>Beat 103</name><duration>100</duration><in>40800.0</in><out>40900.0</out><start>40800.0</start><end>40900.0</end><marker><comment>Beat marker</comment><in>40800.0</in><out>40800.0</out></marker></clipitem><clipitem><name>Beat 104</name><duration>100</duration><in>41200.0</in><out>41300.0</out><start>41200.0</start><end>41300.0</end><marker><comment>Beat marker</comment><in>41200.0</in><out>41200.0</out></marker></clipitem><clipitem><name>Beat 105</name><duration>100</duration><in>41600.0</in><out>41700.0</out><start>41600.0</start><end>41700.0</end><marker><comment>Beat marker</comment><in>41600.0</in><out>41600.0</out></marker></clipitem><clipitem><name>Beat 106</name><duration>100</duration><in>42000.0</in><out>42100.0</out><start>42000.0</start><end>42100.0</end><marker><comment>Beat marker</comment><in>42000.0</in><out>42000.0</out></marker></clipitem><clipitem><name>Beat 107</name><duration>100</duration><in>42400.0</in><out>42500.0</out><start>42400.0</start><end>42500.0</end><marker><comment>Beat marker</comment><in>42400.0</in><out>42400.0</out></marker></clipitem><clipitem><name>Beat 108</name><duration>100</duration><in>42800.0</in><out>42900.0</out><start>42800.0</start><end>42900.0</end><marker><comment>Beat marker</comment><in>42800.0</in><out>42800.0</out></marker></clipitem><clipitem><name>Beat 109</name><duration>100</duration><in>43200.0</in><out>43300.0</out><start>43200.0</start><end>43300.0</end><marker><comment>Beat marker</comment><in>43200.0</in><out>43200.0</out></marker></clipitem><clipitem><name>Beat 110</name><duration>100</duration><in>43600.0</in><out>43700.0</out><start>43600.0</start><end>43700.0</end><marker><comment>Beat marker</comment><in>43600.0</in><out>43600.0</out></marker></clipitem><clipitem><name>Beat 111</name><duration>100</duration><in>44000.0</in><out>44100.0</out><start>44000.0</start><end>44100.0</end><marker><comment>Beat marker</comment><in>44000.0</in><out>44000.0</out></marker></clipitem><clipitem><name>Beat 112</name><duration>100</duration><in>44400.0</in><out>44500.0</out><start>44400.0</start><end>44500.0</end><marker><comment>Beat marker</comment><in>44400.0</in><out>44400.0</out></marker></clipitem><clipitem><name>Beat 113</name><duration>100</duration><in>44800.0</in><out>44900.0</out><start>44800.0</start><end>44900.0</end><marker><comment>Beat marker</comment><in>44800.0</in><out>44800.0</out></marker></clipitem><clipitem><name>Beat 114</name><duration>100</duration><in>45200.0</in><out>45300.0</out><start>45200.0</start><end>45300.0</end><marker><comment>Beat marker</comment><in>45200.0</in><out>45200.0</out></marker></clipitem><clipitem><name>Beat 115</name><duration>100</duration><in>45600.0</in><out>45700.0</out><start>45600.0</start><end>45700.0</end><marker><comment>Beat marker</comment><in>45600.0</in><out>45600.0</out></marker></clipitem><clipitem><name>Beat 116</name><duration>100</duration><in>46000.0</in><out>46100.0</out><start>46000.0</start><end>46100.0</end><marker><comment>Beat marker</comment><in>46000.0</in><out>46000.0</out></marker></clipitem><clipitem><name>Beat 117</name><duration>100</duration><in>46400.0</in><out>46500.0</out><start>46400.0</start><end>46500.0</end><marker><comment>Beat marker</comment><in>46400.0</in><out>46400.0</out></marker></clipitem><clipitem><name>Beat 118</name><duration>100</duration><in>46800.0</in><out>46900.0</out><start>46800.0</start><end>46900.0</end><marker><comment>Beat marker</comment><in>46800.0</in><out>46800.0</out></marker></clipitem><clipitem><name>Beat 119</name><duration>100</duration><in>47200.0</in><out>47300.0</out><start>47200.0</start><end>47300.0</end><marker><comment>Beat marker</comment><in>47200.0</in><out>47200.0</out></marker></clipitem><clipitem><name>Beat 120</name><duration>100</duration><in>47600.0</in><out>47700.0</out><start>47600.0</start><end>47700.0</end><marker><comment>Beat marker</comment><in>47600.0</in><out>47600.0</out></marker></clipitem><clipitem><name>Beat 121</name><duration>100</duration><in>48000.0</in><out>48100.0</out><start>48000.0</start><end>48100.0</end><marker><comment>Beat marker</comment><in>48000.0</in><out>48000.0</out></marker></clipitem><clipitem><name>Beat 122</name><duration>100</duration><in>48400.0</in><out>48500.0</out><start>48400.0</start><end>48500.0</end><marker><comment>Beat marker</comment><in>48400.0</in><out>48400.0</out></marker></clipitem><clipitem><name>Beat 123</name><duration>100</duration><in>48800.0</in><out>48900.0</out><start>48800.0</start><end>48900.0</end><marker><comment>Beat marker</comment><in>48800.0</in><out>48800.0</out></marker></clipitem><clipitem><name>Beat 124</name><duration>100</duration><in>49200.0</in><out>49300.0</out><start>49200.0</start><end>49300.0</end><marker><comment>Beat marker</comment><in>49200.0</in><out>49200.0</out></marker></clipitem><clipitem><name>Beat 125</name><duration>100</duration><in>49600.0</in><out>49700.0</out><start>49600.0</start><end>49700.0</end><marker><comment>Beat marker</comment><in>49600.0</in><out>49600.0</out></marker></clipitem><clipitem><name>Beat 126</name><duration>100</duration><in>50000.0</in><out>50100.0</out><start>50000.0</start><end>50100.0</end><marker><comment>Beat marker</comment><in>50000.0</in><out>50000.0</out></marker></clipitem><clipitem><name>Beat 127</name><duration>100</duration><in>50400.0</in><out>50500.0</out><start>50400.0</start><end>50500.0</end><marker><comment>Beat marker</comment><in>50400.0</in><out>50400.0</out></marker></clipitem><clipitem><name>Beat 128</name><duration>100</duration><in>50800.0</in><out>50900.0</out><start>50800.0</start><end>50900.0</end><marker><comment>Beat marker</comment><in>50800.0</in><out>50800.0</out></marker></clipitem><clipitem><name>Beat 129</name><duration>100</duration><in>51200.0</in><out>51300.0</out><start>51200.0</start><end>51300.0</end><marker><comment>Beat marker</comment><in>51200.0</in><out>51200.0</out></marker></clipitem><clipitem><name>Beat 130</name><duration>100</duration><in>51600.0</in><out>51700.0</out><start>51600.0</start><end>51700.0</end><marker><comment>Beat marker</comment><in>51600.0</in><out>51600.0</out></marker></clipitem><clipitem><name>Beat 131</name><duration>100</duration><in>52000.0</in><out>52100.0</out><start>52000.0</start><end>52100.0</end><marker><comment>Beat marker</comment><in>52000.0</in><out>52000.0</out></marker></clipitem><clipitem><name>Beat 132</name><duration>100</duration><in>52400.0</in><out>52500.0</out><start>52400.0</start><end>52500.0</end><marker><comment>Beat marker</comment><in>52400.0</in><out>52400.0</out></marker></clipitem><clipitem><name>Beat 133</name><duration>100</duration><in>52800.0</in><out>52900.0</out><start>52800.0</start><end>52900.0</end><marker><comment>Beat marker</comment><in>52800.0</in><out>52800.0</out></marker></clipitem><clipitem><name>Beat 134</name><duration>100</duration><in>53200.0</in><out>53300.0</out><start>53200.0</start><end>53300.0</end><marker><comment>Beat marker</comment><in>53200.0</in><out>53200.0</out></marker></clipitem><clipitem><name>Beat 135</name><duration>100</duration><in>53600.0</in><out>53700.0</out><start>53600.0</start><end>53700.0</end><marker><comment>Beat marker</comment><in>53600.0</in><out>53600.0</out></marker></clipitem><clipitem><name>Beat 136</name><duration>100</duration><in>54000.0</in><out>54100.0</out><start>54000.0</start><end>54100.0</end><marker><comment>Beat marker</comment><in>54000.0</in><out>54000.0</out></marker></clipitem><clipitem><name>Beat 137</name><duration>100</duration><in>54400.0</in><out>54500.0</out><start>54400.0</start><end>54500.0</end><marker><comment>Beat marker</comment><in>54400.0</in><out>54400.0</out></marker></clipitem><clipitem><name>Beat 138</name><duration>100</duration><in>54800.0</in><out>54900.0</out><start>54800.0</start><end>54900.0</end><marker><comment>Beat marker</comment><in>54800.0</in><out>54800.0</out></marker></clipitem><clipitem><name>Beat 139</name><duration>100</duration><in>55200.0</in><out>55300.0</out><start>55200.0</start><end>55300.0</end><marker><comment>Beat marker</comment><in>55200.0</in><out>55200.0</out></marker></clipitem><clipitem><name>Beat 140</name><duration>100</duration><in>55600.0</in><out>55700.0</out><start>55600.0</start><end>55700.0</end><marker><comment>Beat marker</comment><in>55600.0</in><out>55600.0</out></marker></clipitem><clipitem><name>Beat 141</name><duration>100</duration><in>56000.0</in><out>56100.0</out><start>56000.0</start><end>56100.0</end><marker><comment>Beat marker</comment><in>56000.0</in><out>56000.0</out></marker></clipitem><clipitem><name>Beat 142</name><duration>100</duration><in>56400.0</in><out>56500.0</out><start>56400.0</start><end>56500.0</end><marker><comment>Beat marker</comment><in>56400.0</in><out>56400.0</out></marker></clipitem><clipitem><name>Beat 143</name><duration>100</duration><in>56800.0</in><out>56900.0</out><start>56800.0</start><end>56900.0</end><marker><comment>Beat marker</comment><in>56800.0</in><out>56800.0</out></marker></clipitem><clipitem><name>Beat 144</name><duration>100</duration><in>57200.0</in><out>57300.0</out><start>57200.0</start><end>57300.0</end><marker><comment>Beat marker</comment><in>57200.0</in><out>57200.0</out></marker></clipitem><clipitem><name>Beat 145</name><duration>100</duration><in>57600.0</in><out>57700.0</out><start>57600.0</start><end>57700.0</end><marker><comment>Beat marker</comment><in>57600.0</in><out>57600.0</out></marker></clipitem><clipitem><name>Beat 146</name><duration>100</duration><in>58000.0</in><out>58100.0</out><start>58000.0</start><end>58100.0</end><marker><comment>Beat marker</comment><in>58000.0</in><out>58000.0</out></marker></clipitem><clipitem><name>Beat 147</name><duration>100</duration><in>58400.0</in><out>58500.0</out><start>58400.0</start><end>58500.0</end><marker><comment>Beat marker</comment><in>58400.0</in><out>58400.0</out></marker></clipitem><clipitem><name>Beat 148</name><duration>100</duration><in>58800.0</in><out>58900.0</out><start>58800.0</start><end>58900.0</end><marker><comment>Beat marker</comment><in>58800.0</in><out>58800.0</out></marker></clipitem><clipitem><name>Beat 149</name><duration>100</duration><in>59200.0</in><out>59300.0</out><start>59200.0</start><end>59300.0</end><marker><comment>Beat marker</comment><in>59200.0</in><out>59200.0</out></marker></clipitem><clipitem><name>Beat 150</name><duration>100</duration><in>59600.0</in><out>59700.0</out><start>59600.0</start><end>59700.0</end><marker><comment>Beat marker</comment><in>59600.0</in><out>59600.0</out></marker></clipitem><clipitem><name>Beat 151</name><duration>100</duration><in>60000.0</in><out>60100.0</out><start>60000.0</start><end>60100.0</end><marker><comment>Beat marker</comment><in>60000.0</in><out>60000.0</out></marker></clipitem><clipitem><name>Beat 152</name><duration>100</duration><in>60400.0</in><out>60500.0</out><start>60400.0</start><end>60500.0</end><marker><comment>Beat marker</comment><in>60400.0</in><out>60400.0</out></marker></clipitem><clipitem><name>Beat 153</name><duration>100</duration><in>60800.0</in><out>60900.0</out><start>60800.0</start><end>60900.0</end><marker><comment>Beat marker</comment><in>60800.0</in><out>60800.0</out></marker></clipitem><clipitem><name>Beat 154</name><duration>100</duration><in>61200.0</in><out>61300.0</out><start>61200.0</start><end>61300.0</end><marker><comment>Beat marker</comment><in>61200.0</in><out>61200.0</out></marker></clipitem><clipitem><name>Beat 155</name><duration>100</duration><in>61600.0</in><out>61700.0</out><start>61600.0</start><end>61700.0</end><marker><comment>Beat marker</comment><in>61600.0</in><out>61600.0</out></marker></clipitem><clipitem><name>Beat 156</name><duration>100</duration><in>62000.0</in><out>62100.0</out><start>62000.0</start><end>62100.0</end><marker><comment>Beat marker</comment><in>62000.0</in><out>62000.0</out></marker></clipitem><clipitem><name>Beat 157</name><duration>100</duration><in>62400.0</in><out>62500.0</out><start>62400.0</start><end>62500.0</end><marker><comment>Beat marker</comment><in>62400.0</in><out>62400.0</out></marker></clipitem><clipitem><name>Beat 158</name><duration>100</duration><in>62800.0</in><out>62900.0</out><start>62800.0</start><end>62900.0</end><marker><comment>Beat marker</comment><in>62800.0</in><out>62800.0</out></marker></clipitem><clipitem><name>Beat 159</name><duration>100</duration><in>63200.0</in><out>63300.0</out><start>63200.0</start><end>63300.0</end><marker><comment>Beat marker</comment><in>63200.0</in><out>63200.0</out></marker></clipitem><clipitem><name>Beat 160</name><duration>100</duration><in>63600.0</in><out>63700.0</out><start>63600.0</start><end>63700.0</end><marker><comment>Beat marker</comment><in>63600.0</in><out>63600.0</out></marker></clipitem><clipitem><name>Beat 161</name><duration>100</duration><in>64000.0</in><out>64100.0</out><start>64000.0</start><end>64100.0</end><marker><comment>Beat marker</comment><in>64000.0</in><out>64000.0</out></marker></clipitem><clipitem><name>Beat 162</name><duration>100</duration><in>64400.0</in><out>64500.0</out><start>64400.0</start><end>64500.0</end><marker><comment>Beat marker</comment><in>64400.0</in><out>64400.0</out></marker></clipitem><clipitem><name>Beat 163</name><duration>100</duration><in>64800.0</in><out>64900.0</out><start>64800.0</start><end>64900.0</end><marker><comment>Beat marker</comment><in>64800.0</in><out>64800.0</out></marker></clipitem><clipitem><name>Beat 164</name><duration>100</duration><in>65200.0</in><out>65300.0</out><start>65200.0</start><end>65300.0</end><marker><comment>Beat marker</comment><in>65200.0</in><out>65200.0</out></marker></clipitem><clipitem><name>Beat 165</name><duration>100</duration><in>65600.0</in><out>65700.0</out><start>65600.0</start><end>65700.0</end><marker><comment>Beat marker</comment><in>65600.0</in><out>65600.0</out></marker></clipitem><clipitem><name>Beat 166</name><duration>100</duration><in>66000.0</in><out>66100.0</out><start>66000.0</start><end>66100.0</end><marker><comment>Beat marker</comment><in>66000.0</in><out>66000.0</out></marker></clipitem><clipitem><name>Beat 167</name><duration>100</duration><in>66400.0</in><out>66500.0</out><start>66400.0</start><end>66500.0</end><marker><comment>Beat marker</comment><in>66400.0</in><out>66400.0</out></marker></clipitem><clipitem><name>Beat 168</name><duration>100</duration><in>66800.0</in><out>66900.0</out><start>66800.0</start><end>66900.0</end><marker><comment>Beat marker</comment><in>66800.0</in><out>66800.0</out></marker></clipitem><clipitem><name>Beat 169</name><duration>100</duration><in>67200.0</in><out>67300.0</out><start>67200.0</start><end>67300.0</end><marker><comment>Beat marker</comment><in>67200.0</in><out>67200.0</out></marker></clipitem><clipitem><name>Beat 170</name><duration>100</duration><in>67600.0</in><out>67700.0</out><start>67600.0</start><end>67700.0</end><marker><comment>Beat marker</comment><in>67600.0</in><out>67600.0</out></marker></clipitem><clipitem><name>Beat 171</name><duration>100</duration><in>68000.0</in><out>68100.0</out><start>68000.0</start><end>68100.0</end><marker><comment>Beat marker</comment><in>68000.0</in><out>68000.0</out></marker></clipitem><clipitem><name>Beat 172</name><duration>100</duration><in>68400.0</in><out>68500.0</out><start>68400.0</start><end>68500.0</end><marker><comment>Beat marker</comment><in>68400.0</in><out>68400.0</out></marker></clipitem><clipitem><name>Beat 173</name><duration>100</duration><in>68800.0</in><out>68900.0</out><start>68800.0</start><end>68900.0</end><marker><comment>Beat marker</comment><in>68800.0</in><out>68800.0</out></marker></clipitem><clipitem><name>Beat 174</name><duration>100</duration><in>69200.0</in><out>69300.0</out><start>69200.0</start><end>69300.0</end><marker><comment>Beat marker</comment><in>69200.0</in><out>69200.0</out></marker></clipitem><clipitem><name>Beat 175</name><duration>100</duration><in>69600.0</in><out>69700.0</out><start>69600.0</start><end>69700.0</end><marker><comment>Beat marker</comment><in>69600.0</in><out>69600.0</out></marker></clipitem><clipitem><name>Beat 176</name><duration>100</duration><in>70000.0</in><out>70100.0</out><start>70000.0</start><end>70100.0</end><marker><comment>Beat marker</comment><in>70000.0</in><out>70000.0</out></marker></clipitem><clipitem><name>Beat 177</name><duration>100</duration><in>70400.0</in><out>70500.0</out><start>70400.0</start><end>70500.0</end><marker><comment>Beat marker</comment><in>70400.0</in><out>70400.0</out></marker></clipitem><clipitem><name>Beat 178</name><duration>100</duration><in>70800.0</in><out>70900.0</out><start>70800.0</start><end>70900.0</end><marker><comment>Beat marker</comment><in>70800.0</in><out>70800.0</out></marker></clipitem><clipitem><name>Beat 179</name><duration>100</duration><in>71200.0</in><out>71300.0</out><start>71200.0</start><end>71300.0</end><marker><comment>Beat marker</comment><in>71200.0</in><out>71200.0</out></marker></clipitem><clipitem><name>Beat 180</name><duration>100</duration><in>71600.0</in><out>71700.0</out><start>71600.0</start><end>71700.0</end><marker><comment>Beat marker</comment><in>71600.0</in><out>71600.0</out></marker></clipitem><clipitem><name>Beat 181</name><duration>100</duration><in>72000.0</in><out>72100.0</out><start>72000.0</start><end>72100.0</end><marker><comment>Beat marker</comment><in>72000.0</in><out>72000.0</out></marker></clipitem><clipitem><name>Beat 182</name><duration>100</duration><in>72400.0</in><out>72500.0</out><start>72400.0</start><end>72500.0</end><marker><comment>Beat marker</comment><in>72400.0</in><out>72400.0</out></marker></clipitem><clipitem><name>Beat 183</name><duration>100</duration><in>72800.0</in><out>72900.0</out><start>72800.0</start><end>72900.0</end><marker><comment>Beat marker</comment><in>72800.0</in><out>72800.0</out></marker></clipitem><clipitem><name>Beat 184</name><duration>100</duration><in>73200.0</in><out>73300.0</out><start>73200.0</start><end>73300.0</end><marker><comment>Beat marker</comment><in>73200.0</in><out>73200.0</out></marker></clipitem><clipitem><name>Beat 185</name><duration>100</duration><in>73600.0</in><out>73700.0</out><start>73600.0</start><end>73700.0</end><marker><comment>Beat marker</comment><in>73600.0</in><out>73600.0</out></marker></clipitem><clipitem><name>Beat 186</name><duration>100</duration><in>74000.0</in><out>74100.0</out><start>74000.0</start><end>74100.0</end><marker><comment>Beat marker</comment><in>74000.0</in><out>74000.0</out></marker></clipitem><clipitem><name>Beat 187</name><duration>100</duration><in>74400.0</in><out>74500.0</out><start>74400.0</start><end>74500.0</end><marker><comment>Beat marker</comment><in>74400.0</in><out>74400.0</out></marker></clipitem><clipitem><name>Beat 188</name><duration>100</duration><in>74800.0</in><out>74900.0</out><start>74800.0</start><end>74900.0</end><marker><comment>Beat marker</comment><in>74800.0</in><out>74800.0</out></marker></clipitem><clipitem><name>Beat 189</name><duration>100</duration><in>75200.0</in><out>75300.0</out><start>75200.0</start><end>75300.0</end><marker><comment>Beat marker</comment><in>75200.0</in><out>75200.0</out></marker></clipitem><clipitem><name>Beat 190</name><duration>100</duration><in>75600.0</in><out>75700.0</out><start>75600.0</start><end>75700.0</end><marker><comment>Beat marker</comment><in>75600.0</in><out>75600.0</out></marker></clipitem><clipitem><name>Beat 191</name><duration>100</duration><in>76000.0</in><out>76100.0</out><start>76000.0</start><end>76100.0</end><marker><comment>Beat marker</comment><in>76000.0</in><out>76000.0</out></marker></clipitem><clipitem><name>Beat 192</name><duration>100</duration><in>76400.0</in><out>76500.0</out><start>76400.0</start><end>76500.0</end><marker><comment>Beat marker</comment><in>76400.0</in><out>76400.0</out></marker></clipitem><clipitem><name>Beat 193</name><duration>100</duration><in>76800.0</in><out>76900.0</out><start>76800.0</start><end>76900.0</end><marker><comment>Beat marker</comment><in>76800.0</in><out>76800.0</out></marker></clipitem><clipitem><name>Beat 194</name><duration>100</duration><in>77200.0</in><out>77300.0</out><start>77200.0</start><end>77300.0</end><marker><comment>Beat marker</comment><in>77200.0</in><out>77200.0</out></marker></clipitem><clipitem><name>Beat 195</name><duration>100</duration><in>77600.0</in><out>77700.0</out><start>77600.0</start><end>77700.0</end><marker><comment>Beat marker</comment><in>77600.0</in><out>77600.0</out></marker></clipitem><clipitem><name>Beat 196</name><duration>100</duration><in>78000.0</in><out>78100.0</out><start>78000.0</start><end>78100.0</end><marker><comment>Beat marker</comment><in>78000.0</in><out>78000.0</out></marker></clipitem><clipitem><name>Beat 197</name><duration>100</duration><in>78400.0</in><out>78500.0</out><start>78400.0</start><end>78500.0</end><marker><comment>Beat marker</comment><in>78400.0</in><out>78400.0</out></marker></clipitem><clipitem><name>Beat 198</name><duration>100</duration><in>78800.0</in><out>78900.0</out><start>78800.0</start><end>78900.0</end><marker><comment>Beat marker</comment><in>78800.0</in><out>78800.0</out></marker></clipitem><clipitem><name>Beat 199</name><duration>100</duration><in>79200.0</in><out>79300.0</out><start>79200.0</start><end>79300.0</end><marker><comment>Beat marker</comment><in>79200.0</in><out>79200.0</out></marker></clipitem><clipitem><name>Beat 200</name><duration>100</duration><in>79600.0</in><out>79700.0</out><start>79600.0</start><end>79700.0</end><marker><comment>Beat marker</comment><in>79600.0</in><out>79600.0</out></marker></clipitem><clipitem><name>Beat 201</name><duration>100</duration><in>80000.0</in><out>80100.0</out><start>80000.0</start><end>80100.0</end><marker><comment>Beat marker</comment><in>80000.0</in><out>80000.0</out></marker></clipitem><clipitem><name>Beat 202</name><duration>100</duration><in>80400.0</in><out>80500.0</out><start>80400.0</start><end>80500.0</end><marker><comment>Beat marker</comment><in>80400.0</in><out>80400.0</out></marker></clipitem><clipitem><name>Beat 203</name><duration>100</duration><in>80800.0</in><out>80900.0</out><start>80800.0</start><end>80900.0</end><marker><comment>Beat marker</comment><in>80800.0</in><out>80800.0</out></marker></clipitem><clipitem><name>Beat 204</name><duration>100</duration><in>81200.0</in><out>81300.0</out><start>81200.0</start><end>81300.0</end><marker><comment>Beat marker</comment><in>81200.0</in><out>81200.0</out></marker></clipitem><clipitem><name>Beat 205</name><duration>100</duration><in>81600.0</in><out>81700.0</out><start>81600.0</start><end>81700.0</end><marker><comment>Beat marker</comment><in>81600.0</in><out>81600.0</out></marker></clipitem><clipitem><name>Beat 206</name><duration>100</duration><in>82000.0</in><out>82100.0</out><start>82000.0</start><end>82100.0</end><marker><comment>Beat marker</comment><in>82000.0</in><out>82000.0</out></marker></clipitem><clipitem><name>Beat 207</name><duration>100</duration><in>82400.0</in><out>82500.0</out><start>82400.0</start><end>82500.0</end><marker><comment>Beat marker</comment><in>82400.0</in><out>82400.0</out></marker></clipitem><clipitem><name>Beat 208</name><duration>100</duration><in>82800.0</in><out>82900.0</out><start>82800.0</start><end>82900.0</end><marker><comment>Beat marker</comment><in>82800.0</in><out>82800.0</out></marker></clipitem><clipitem><name>Beat 209</name><duration>100</duration><in>83200.0</in><out>83300.0</out><start>83200.0</start><end>83300.0</end><marker><comment>Beat marker</comment><in>83200.0</in><out>83200.0</out></marker></clipitem><clipitem><name>Beat 210</name><duration>100</duration><in>83600.0</in><out>83700.0</out><start>83600.0</start><end>83700.0</end><marker><comment>Beat marker</comment><in>83600.0</in><out>83600.0</out></marker></clipitem><clipitem><name>Beat 211</name><duration>100</duration><in>84000.0</in><out>84100.0</out><start>84000.0</start><end>84100.0</end><marker><comment>Beat marker</comment><in>84000.0</in><out>84000.0</out></marker></clipitem><clipitem><name>Beat 212</name><duration>100</duration><in>84400.0</in><out>84500.0</out><start>84400.0</start><end>84500.0</end><marker><comment>Beat marker</comment><in>84400.0</in><out>84400.0</out></marker></clipitem><clipitem><name>Beat 213</name><duration>100</duration><in>84800.0</in><out>84900.0</out><start>84800.0</start><end>84900.0</end><marker><comment>Beat marker</comment><in>84800.0</in><out>84800.0</out></marker></clipitem><clipitem><name>Beat 214</name><duration>100</duration><in>85200.0</in><out>85300.0</out><start>85200.0</start><end>85300.0</end><marker><comment>Beat marker</comment><in>85200.0</in><out>85200.0</out></marker></clipitem><clipitem><name>Beat 215</name><duration>100</duration><in>85600.0</in><out>85700.0</out><start>85600.0</start><end>85700.0</end><marker><comment>Beat marker</comment><in>85600.0</in><out>85600.0</out></marker></clipitem><clipitem><name>Beat 216</name><duration>100</duration><in>86000.0</in><out>86100.0</out><start>86000.0</start><end>86100.0</end><marker><comment>Beat marker</comment><in>86000.0</in><out>86000.0</out></marker></clipitem><clipitem><name>Beat 217</name><duration>100</duration><in>86400.0</in><out>86500.0</out><start>86400.0</start><end>86500.0</end><marker><comment>Beat marker</comment><in>86400.0</in><out>86400.0</out></marker></clipitem><clipitem><name>Beat 218</name><duration>100</duration><in>86800.0</in><out>86900.0</out><start>86800.0</start><end>86900.0</end><marker><comment>Beat marker</comment><in>86800.0</in><out>86800.0</out></marker></clipitem><clipitem><name>Beat 219</name><duration>100</duration><in>87200.0</in><out>87300.0</out><start>87200.0</start><end>87300.0</end><marker><comment>Beat marker</comment><in>87200.0</in><out>87200.0</out></marker></clipitem><clipitem><name>Beat 220</name><duration>100</duration><in>87600.0</in><out>87700.0</out><start>87600.0</start><end>87700.0</end><marker><comment>Beat marker</comment><in>87600.0</in><out>87600.0</out></marker></clipitem><clipitem><name>Beat 221</name><duration>100</duration><in>88000.0</in><out>88100.0</out><start>88000.0</start><end>88100.0</end><marker><comment>Beat marker</comment><in>88000.0</in><out>88000.0</out></marker></clipitem><clipitem><name>Beat 222</name><duration>100</duration><in>88400.0</in><out>88500.0</out><start>88400.0</start><end>88500.0</end><marker><comment>Beat marker</comment><in>88400.0</in><out>88400.0</out></marker></clipitem><clipitem><name>Beat 223</name><duration>100</duration><in>88800.0</in><out>88900.0</out><start>88800.0</start><end>88900.0</end><marker><comment>Beat marker</comment><in>88800.0</in><out>88800.0</out></marker></clipitem><clipitem><name>Beat 224</name><duration>100</duration><in>89200.0</in><out>89300.0</out><start>89200.0</start><end>89300.0</end><marker><comment>Beat marker</comment><in>89200.0</in><out>89200.0</out></marker></clipitem><clipitem><name>Beat 225</name><duration>100</duration><in>89600.0</in><out>89700.0</out><start>89600.0</start><end>89700.0</end><marker><comment>Beat marker</comment><in>89600.0</in><out>89600.0</out></marker></clipitem><clipitem><name>Beat 226</name><duration>100</duration><in>90000.0</in><out>90100.0</out><start>90000.0</start><end>90100.0</end><marker><comment>Beat marker</comment><in>90000.0</in><out>90000.0</out></marker></clipitem><clipitem><name>Beat 227</name><duration>100</duration><in>90400.0</in><out>90500.0</out><start>90400.0</start><end>90500.0</end><marker><comment>Beat marker</comment><in>90400.0</in><out>90400.0</out></marker></clipitem><clipitem><name>Beat 228</name><duration>100</duration><in>90800.0</in><out>90900.0</out><start>90800.0</start><end>90900.0</end><marker><comment>Beat marker</comment><in>90800.0</in><out>90800.0</out></marker></clipitem><clipitem><name>Beat 229</name><duration>100</duration><in>91200.0</in><out>91300.0</out><start>91200.0</start><end>91300.0</end><marker><comment>Beat marker</comment><in>91200.0</in><out>91200.0</out></marker></clipitem><clipitem><name>Beat 230</name><duration>100</duration><in>91600.0</in><out>91700.0</out><start>91600.0</start><end>91700.0</end><marker><comment>Beat marker</comment><in>91600.0</in><out>91600.0</out></marker></clipitem><clipitem><name>Beat 231</name><duration>100</duration><in>92000.0</in><out>92100.0</out><start>92000.0</start><end>92100.0</end><marker><comment>Beat marker</comment><in>92000.0</in><out>92000.0</out></marker></clipitem><clipitem><name>Beat 232</name><duration>100</duration><in>92400.0</in><out>92500.0</out><start>92400.0</start><end>92500.0</end><marker><comment>Beat marker</comment><in>92400.0</in><out>92400.0</out></marker></clipitem><clipitem><name>Beat 233</name><duration>100</duration><in>92800.0</in><out>92900.0</out><start>92800.0</start><end>92900.0</end><marker><comment>Beat marker</comment><in>92800.0</in><out>92800.0</out></marker></clipitem><clipitem><name>Beat 234</name><duration>100</duration><in>93200.0</in><out>93300.0</out><start>93200.0</start><end>93300.0</end><marker><comment>Beat marker</comment><in>93200.0</in><out>93200.0</out></marker></clipitem><clipitem><name>Beat 235</name><duration>100</duration><in>93600.0</in><out>93700.0</out><start>93600.0</start><end>93700.0</end><marker><comment>Beat marker</comment><in>93600.0</in><out>93600.0</out></marker></clipitem><clipitem><name>Beat 236</name><duration>100</duration><in>94000.0</in><out>94100.0</out><start>94000.0</start><end>94100.0</end><marker><comment>Beat marker</comment><in>94000.0</in><out>94000.0</out></marker></clipitem><clipitem><name>Beat 237</name><duration>100</duration><in>94400.0</in><out>94500.0</out><start>94400.0</start><end>94500.0</end><marker><comment>Beat marker</comment><in>94400.0</in><out>94400.0</out></marker></clipitem><clipitem><name>Beat 238</name><duration>100</duration><in>94800.0</in><out>94900.0</out><start>94800.0</start><end>94900.0</end><marker><comment>Beat marker</comment><in>94800.0</in><out>94800.0</out></marker></clipitem><clipitem><name>Beat 239</name><duration>100</duration><in>95200.0</in><out>95300.0</out><start>95200.0</start><end>95300.0</end><marker><comment>Beat marker</comment><in>95200.0</in><out>95200.0</out></marker></clipitem><clipitem><name>Beat 240</name><duration>100</duration><in>95600.0</in><out>95700.0</out><start>95600.0</start><end>95700.0</end><marker><comment>Beat marker</comment><in>95600.0</in><out>95600.0</out></marker></clipitem><clipitem><name>Beat 241</name><duration>100</duration><in>96000.0</in><out>96100.0</out><start>96000.0</start><end>96100.0</end><marker><comment>Beat marker</comment><in>96000.0</in><out>96000.0</out></marker></clipitem><clipitem><name>Beat 242</name><duration>100</duration><in>96400.0</in><out>96500.0</out><start>96400.0</start><end>96500.0</end><marker><comment>Beat marker</comment><in>96400.0</in><out>96400.0</out></marker></clipitem><clipitem><name>Beat 243</name><duration>100</duration><in>96800.0</in><out>96900.0</out><start>96800.0</start><end>96900.0</end><marker><comment>Beat marker</comment><in>96800.0</in><out>96800.0</out></marker></clipitem><clipitem><name>Beat 244</name><duration>100</duration><in>97200.0</in><out>97300.0</out><start>97200.0</start><end>97300.0</end><marker><comment>Beat marker</comment><in>97200.0</in><out>97200.0</out></marker></clipitem><clipitem><name>Beat 245</name><duration>100</duration><in>97600.0</in><out>97700.0</out><start>97600.0</start><end>97700.0</end><marker><comment>Beat marker</comment><in>97600.0</in><out>97600.0</out></marker></clipitem><clipitem><name>Beat 246</name><duration>100</duration><in>98000.0</in><out>98100.0</out><start>98000.0</start><end>98100.0</end><marker><comment>Beat marker</comment><in>98000.0</in><out>98000.0</out></marker></clipitem><clipitem><name>Beat 247</name><duration>100</duration><in>98400.0</in><out>98500.0</out><start>98400.0</start><end>98500.0</end><marker><comment>Beat marker</comment><in>98400.0</in><out>98400.0</out></marker></clipitem><clipitem><name>Beat 248</name><duration>100</duration><in>98800.0</in><out>98900.0</out><start>98800.0</start><end>98900.0</end><marker><comment>Beat marker</comment><in>98800.0</in><out>98800.0</out></marker></clipitem><clipitem><name>Beat 249</name><duration>100</duration><in>99200.0</in><out>99300.0</out><start>99200.0</start><end>99300.0</end><marker><comment>Beat marker</comment><in>99200.0</in><out>99200.0</out></marker></clipitem><clipitem><name>Beat 250</name><duration>100</duration><in>99600.0</in><out>99700.0</out><start>99600.0</start><end>99700.0</end><marker><comment>Beat marker</comment><in>99600.0</in><out>99600.0</out></marker></clipitem><clipitem><name>Beat 251</name><duration>100</duration><in>100000.0</in><out>100100.0</out><start>100000.0</start><end>100100.0</end><marker><comment>Beat marker</comment><in>100000.0</in><out>100000.0</out></marker></clipitem><clipitem><name>Beat 252</name><duration>100</duration><in>100400.0</in><out>100500.0</out><start>100400.0</start><end>100500.0</end><marker><comment>Beat marker</comment><in>100400.0</in><out>100400.0</out></marker></clipitem><clipitem><name>Beat 253</name><duration>100</duration><in>100800.0</in><out>100900.0</out><start>100800.0</start><end>100900.0</end><marker><comment>Beat marker</comment><in>100800.0</in><out>100800.0</out></marker></clipitem><clipitem><name>Beat 254</name><duration>100</duration><in>101200.0</in><out>101300.0</out><start>101200.0</start><end>101300.0</end><marker><comment>Beat marker</comment><in>101200.0</in><out>101200.0</out></marker></clipitem><clipitem><name>Beat 255</name><duration>100</duration><in>101600.0</in><out>101700.0</out><start>101600.0</start><end>101700.0</end><marker><comment>Beat marker</comment><in>101600.0</in><out>101600.0</out></marker></clipitem><clipitem><name>Beat 256</name><duration>100</duration><in>102000.0</in><out>102100.0</out><start>102000.0</start><end>102100.0</end><marker><comment>Beat marker</comment><in>102000.0</in><out>102000.0</out></marker></clipitem><clipitem><name>Beat 257</name><duration>100</duration><in>102400.0</in><out>102500.0</out><start>102400.0</start><end>102500.0</end><marker><comment>Beat marker</comment><in>102400.0</in><out>102400.0</out></marker></clipitem><clipitem><name>Beat 258</name><duration>100</duration><in>102800.0</in><out>102900.0</out><start>102800.0</start><end>102900.0</end><marker><comment>Beat marker</comment><in>102800.0</in><out>102800.0</out></marker></clipitem><clipitem><name>Beat 259</name><duration>100</duration><in>103200.0</in><out>103300.0</out><start>103200.0</start><end>103300.0</end><marker><comment>Beat marker</comment><in>103200.0</in><out>103200.0</out></marker></clipitem><clipitem><name>Beat 260</name><duration>100</duration><in>103600.0</in><out>103700.0</out><start>103600.0</start><end>103700.0</end><marker><comment>Beat marker</comment><in>103600.0</in><out>103600.0</out></marker></clipitem><clipitem><name>Beat 261</name><duration>100</duration><in>104000.0</in><out>104100.0</out><start>104000.0</start><end>104100.0</end><marker><comment>Beat marker</comment><in>104000.0</in><out>104000.0</out></marker></clipitem><clipitem><name>Beat 262</name><duration>100</duration><in>104400.0</in><out>104500.0</out><start>104400.0</start><end>104500.0</end><marker><comment>Beat marker</comment><in>104400.0</in><out>104400.0</out></marker></clipitem><clipitem><name>Beat 263</name><duration>100</duration><in>104800.0</in><out>104900.0</out><start>104800.0</start><end>104900.0</end><marker><comment>Beat marker</comment><in>104800.0</in><out>104800.0</out></marker></clipitem><clipitem><name>Beat 264</name><duration>100</duration><in>105200.0</in><out>105300.0</out><start>105200.0</start><end>105300.0</end><marker><comment>Beat marker</comment><in>105200.0</in><out>105200.0</out></marker></clipitem><clipitem><name>Beat 265</name><duration>100</duration><in>105600.0</in><out>105700.0</out><start>105600.0</start><end>105700.0</end><marker><comment>Beat marker</comment><in>105600.0</in><out>105600.0</out></marker></clipitem><clipitem><name>Beat 266</name><duration>100</duration><in>106000.0</in><out>106100.0</out><start>106000.0</start><end>106100.0</end><marker><comment>Beat marker</comment><in>106000.0</in><out>106000.0</out></marker></clipitem><clipitem><name>Beat 267</name><duration>100</duration><in>106400.0</in><out>106500.0</out><start>106400.0</start><end>106500.0</end><marker><comment>Beat marker</comment><in>106400.0</in><out>106400.0</out></marker></clipitem><clipitem><name>Beat 268</name><duration>100</duration><in>106800.0</in><out>106900.0</out><start>106800.0</start><end>106900.0</end><marker><comment>Beat marker</comment><in>106800.0</in><out>106800.0</out></marker></clipitem><clipitem><name>Beat 269</name><duration>100</duration><in>107200.0</in><out>107300.0</out><start>107200.0</start><end>107300.0</end><marker><comment>Beat marker</comment><in>107200.0</in><out>107200.0</out></marker></clipitem><clipitem><name>Beat 270</name><duration>100</duration><in>107600.0</in><out>107700.0</out><start>107600.0</start><end>107700.0</end><marker><comment>Beat marker</comment><in>107600.0</in><out>107600.0</out></marker></clipitem><clipitem><name>Beat 271</name><duration>100</duration><in>108000.0</in><out>108100.0</out><start>108000.0</start><end>108100.0</end><marker><comment>Beat marker</comment><in>108000.0</in><out>108000.0</out></marker></clipitem><clipitem><name>Beat 272</name><duration>100</duration><in>108400.0</in><out>108500.0</out><start>108400.0</start><end>108500.0</end><marker><comment>Beat marker</comment><in>108400.0</in><out>108400.0</out></marker></clipitem><clipitem><name>Beat 273</name><duration>100</duration><in>108800.0</in><out>108900.0</out><start>108800.0</start><end>108900.0</end><marker><comment>Beat marker</comment><in>108800.0</in><out>108800.0</out></marker></clipitem><clipitem><name>Beat 274</name><duration>100</duration><in>109200.0</in><out>109300.0</out><start>109200.0</start><end>109300.0</end><marker><comment>Beat marker</comment><in>109200.0</in><out>109200.0</out></marker></clipitem><clipitem><name>Beat 275</name><duration>100</duration><in>109600.0</in><out>109700.0</out><start>109600.0</start><end>109700.0</end><marker><comment>Beat marker</comment><in>109600.0</in><out>109600.0</out></marker></clipitem><clipitem><name>Beat 276</name><duration>100</duration><in>110000.0</in><out>110100.0</out><start>110000.0</start><end>110100.0</end><marker><comment>Beat marker</comment><in>110000.0</in><out>110000.0</out></marker></clipitem><clipitem><name>Beat 277</name><duration>100</duration><in>110400.0</in><out>110500.0</out><start>110400.0</start><end>110500.0</end><marker><comment>Beat marker</comment><in>110400.0</in><out>110400.0</out></marker></clipitem><clipitem><name>Beat 278</name><duration>100</duration><in>110800.0</in><out>110900.0</out><start>110800.0</start><end>110900.0</end><marker><comment>Beat marker</comment><in>110800.0</in><out>110800.0</out></marker></clipitem><clipitem><name>Beat 279</name><duration>100</duration><in>111200.0</in><out>111300.0</out><start>111200.0</start><end>111300.0</end><marker><comment>Beat marker</comment><in>111200.0</in><out>111200.0</out></marker></clipitem><clipitem><name>Beat 280</name><duration>100</duration><in>111600.0</in><out>111700.0</out><start>111600.0</start><end>111700.0</end><marker><comment>Beat marker</comment><in>111600.0</in><out>111600.0</out></marker></clipitem><clipitem><name>Beat 281</name><duration>100</duration><in>112000.0</in><out>112100.0</out><start>112000.0</start><end>112100.0</end><marker><comment>Beat marker</comment><in>112000.0</in><out>112000.0</out></marker></clipitem><clipitem><name>Beat 282</name><duration>100</duration><in>112400.0</in><out>112500.0</out><start>112400.0</start><end>112500.0</end><marker><comment>Beat marker</comment><in>112400.0</in><out>112400.0</out></marker></clipitem><clipitem><name>Beat 283</name><duration>100</duration><in>112800.0</in><out>112900.0</out><start>112800.0</start><end>112900.0</end><marker><comment>Beat marker</comment><in>112800.0</in><out>112800.0</out></marker></clipitem><clipitem><name>Beat 284</name><duration>100</duration><in>113200.0</in><out>113300.0</out><start>113200.0</start><end>113300.0</end><marker><comment>Beat marker</comment><in>113200.0</in><out>113200.0</out></marker></clipitem><clipitem><name>Beat 285</name><duration>100</duration><in>113600.0</in><out>113700.0</out><start>113600.0</start><end>113700.0</end><marker><comment>Beat marker</comment><in>113600.0</in><out>113600.0</out></marker></clipitem><clipitem><name>Beat 286</name><duration>100</duration><in>114000.0</in><out>114100.0</out><start>114000.0</start><end>114100.0</end><marker><comment>Beat marker</comment><in>114000.0</in><out>114000.0</out></marker></clipitem><clipitem><name>Beat 287</name><duration>100</duration><in>114400.0</in><out>114500.0</out><start>114400.0</start><end>114500.0</end><marker><comment>Beat marker</comment><in>114400.0</in><out>114400.0</out></marker></clipitem><clipitem><name>Beat 288</name><duration>100</duration><in>114800.0</in><out>114900.0</out><start>114800.0</start><end>114900.0</end><marker><comment>Beat marker</comment><in>114800.0</in><out>114800.0</out></marker></clipitem><clipitem><name>Beat 289</name><duration>100</duration><in>115200.0</in><out>115300.0</out><start>115200.0</start><end>115300.0</end><marker><comment>Beat marker</comment><in>115200.0</in><out>115200.0</out></marker></clipitem><clipitem><name>Beat 290</name><duration>100</duration><in>115600.0</in><out>115700.0</out><start>115600.0</start><end>115700.0</end><marker><comment>Beat marker</comment><in>115600.0</in><out>115600.0</out></marker></clipitem><clipitem><name>Beat 291</name><duration>100</duration><in>116000.0</in><out>116100.0</out><start>116000.0</start><end>116100.0</end><marker><comment>Beat marker</comment><in>116000.0</in><out>116000.0</out></marker></clipitem><clipitem><name>Beat 292</name><duration>100</duration><in>116400.0</in><out>116500.0</out><start>116400.0</start><end>116500.0</end><marker><comment>Beat marker</comment><in>116400.0</in><out>116400.0</out></marker></clipitem><clipitem><name>Beat 293</name><duration>100</duration><in>116800.0</in><out>116900.0</out><start>116800.0</start><end>116900.0</end><marker><comment>Beat marker</comment><in>116800.0</in><out>116800.0</out></marker></clipitem><clipitem><name>Beat 294</name><duration>100</duration><in>117200.0</in><out>117300.0</out><start>117200.0</start><end>117300.0</end><marker><comment>Beat marker</comment><in>117200.0</in><out>117200.0</out></marker></clipitem><clipitem><name>Beat 295</name><duration>100</duration><in>117600.0</in><out>117700.0</out><start>117600.0</start><end>117700.0</end><marker><comment>Beat marker</comment><in>117600.0</in><out>117600.0</out></marker></clipitem><clipitem><name>Beat 296</name><duration>100</duration><in>118000.0</in><out>118100.0</out><start>118000.0</start><end>118100.0</end><marker><comment>Beat marker</comment><in>118000.0</in><out>118000.0</out></marker></clipitem><clipitem><name>Beat 297</name><duration>100</duration><in>118400.0</in><out>118500.0</out><start>118400.0</start><end>118500.0</end><marker><comment>Beat marker</comment><in>118400.0</in><out>118400.0</out></marker></clipitem><clipitem><name>Beat 298</name><duration>100</duration><in>118800.0</in><out>118900.0</out><start>118800.0</start><end>118900.0</end><marker><comment>Beat marker</comment><in>118800.0</in><out>118800.0</out></marker></clipitem><clipitem><name>Beat 299</name><duration>100</duration><in>119200.0</in><out>119300.0</out><start>119200.0</start><end>119300.0</end><marker><comment>Beat marker</comment><in>119200.0</in><out>119200.0</out></marker></clipitem><clipitem><name>Beat 300</name><duration>100</duration><in>119600.0</in><out>119700.0</out><start>119600.0</start><end>119700.0</end><marker><comment>Beat marker</comment><in>119600.0</in><out>119600.0</out></marker></clipitem><clipitem><name>Beat 301</name><duration>100</duration><in>120000.0</in><out>120100.0</out><start>120000.0</start><end>120100.0</end><marker><comment>Beat marker</comment><in>120000.0</in><out>120000.0</out></marker></clipitem><clipitem><name>Beat 302</name><duration>100</duration><in>120400.0</in><out>120500.0</out><start>120400.0</start><end>120500.0</end><marker><comment>Beat marker</comment><in>120400.0</in><out>120400.0</out></marker></clipitem><clipitem><name>Beat 303</name><duration>100</duration><in>120800.0</in><out>120900.0</out><start>120800.0</start><end>120900.0</end><marker><comment>Beat marker</comment><in>120800.0</in><out>120800.0</out></marker></clipitem><clipitem><name>Beat 304</name><duration>100</duration><in>121200.0</in><out>121300.0</out><start>121200.0</start><end>121300.0</end><marker><comment>Beat marker</comment><in>121200.0</in><out>121200.0</out></marker></clipitem><clipitem><name>Beat 305</name><duration>100</duration><in>121600.0</in><out>121700.0</out><start>121600.0</start><end>121700.0</end><marker><comment>Beat marker</comment><in>121600.0</in><out>121600.0</out></marker></clipitem><clipitem><name>Beat 306</name><duration>100</duration><in>122000.0</in><out>122100.0</out><start>122000.0</start><end>122100.0</end><marker><comment>Beat marker</comment><in>122000.0</in><out>122000.0</out></marker></clipitem><clipitem><name>Beat 307</name><duration>100</duration><in>122400.0</in><out>122500.0</out><start>122400.0</start><end>122500.0</end><marker><comment>Beat marker</comment><in>122400.0</in><out>122400.0</out></marker></clipitem><clipitem><name>Beat 308</name><duration>100</duration><in>122800.0</in><out>122900.0</out><start>122800.0</start><end>122900.0</end><marker><comment>Beat marker</comment><in>122800.0</in><out>122800.0</out></marker></clipitem><clipitem><name>Beat 309</name><duration>100</duration><in>123200.0</in><out>123300.0</out><start>123200.0</start><end>123300.0</end><marker><comment>Beat marker</comment><in>123200.0</in><out>123200.0</out></marker></clipitem><clipitem><name>Beat 310</name><duration>100</duration><in>123600.0</in><out>123700.0</out><start>123600.0</start><end>123700.0</end><marker><comment>Beat marker</comment><in>123600.0</in><out>123600.0</out></marker></clipitem><clipitem><name>Beat 311</name><duration>100</duration><in>124000.0</in><out>124100.0</out><start>124000.0</start><end>124100.0</end><marker><comment>Beat marker</comment><in>124000.0</in><out>124000.0</out></marker></clipitem><clipitem><name>Beat 312</name><duration>100</duration><in>124400.0</in><out>124500.0</out><start>124400.0</start><end>124500.0</end><marker><comment>Beat marker</comment><in>124400.0</in><out>124400.0</out></marker></clipitem><clipitem><name>Beat 313</name><duration>100</duration><in>124800.0</in><out>124900.0</out><start>124800.0</start><end>124900.0</end><marker><comment>Beat marker</comment><in>124800.0</in><out>124800.0</out></marker></clipitem><clipitem><name>Beat 314</name><duration>100</duration><in>125200.0</in><out>125300.0</out><start>125200.0</start><end>125300.0</end><marker><comment>Beat marker</comment><in>125200.0</in><out>125200.0</out></marker></clipitem><clipitem><name>Beat 315</name><duration>100</duration><in>125600.0</in><out>125700.0</out><start>125600.0</start><end>125700.0</end><marker><comment>Beat marker</comment><in>125600.0</in><out>125600.0</out></marker></clipitem><clipitem><name>Beat 316</name><duration>100</duration><in>126000.0</in><out>126100.0</out><start>126000.0</start><end>126100.0</end><marker><comment>Beat marker</comment><in>126000.0</in><out>126000.0</out></marker></clipitem><clipitem><name>Beat 317</name><duration>100</duration><in>126400.0</in><out>126500.0</out><start>126400.0</start><end>126500.0</end><marker><comment>Beat marker</comment><in>126400.0</in><out>126400.0</out></marker></clipitem><clipitem><name>Beat 318</name><duration>100</duration><in>126800.0</in><out>126900.0</out><start>126800.0</start><end>126900.0</end><marker><comment>Beat marker</comment><in>126800.0</in><out>126800.0</out></marker></clipitem><clipitem><name>Beat 319</name><duration>100</duration><in>127200.0</in><out>127300.0</out><start>127200.0</start><end>127300.0</end><marker><comment>Beat marker</comment><in>127200.0</in><out>127200.0</out></marker></clipitem><clipitem><name>Beat 320</name><duration>100</duration><in>127600.0</in><out>127700.0</out><start>127600.0</start><end>127700.0</end><marker><comment>Beat marker</comment><in>127600.0</in><out>127600.0</out></marker></clipitem><clipitem><name>Beat 321</name><duration>100</duration><in>128000.0</in><out>128100.0</out><start>128000.0</start><end>128100.0</end><marker><comment>Beat marker</comment><in>128000.0</in><out>128000.0</out></marker></clipitem><clipitem><name>Beat 322</name><duration>100</duration><in>128400.0</in><out>128500.0</out><start>128400.0</start><end>128500.0</end><marker><comment>Beat marker</comment><in>128400.0</in><out>128400.0</out></marker></clipitem><clipitem><name>Beat 323</name><duration>100</duration><in>128800.0</in><out>128900.0</out><start>128800.0</start><end>128900.0</end><marker><comment>Beat marker</comment><in>128800.0</in><out>128800.0</out></marker></clipitem><clipitem><name>Beat 324</name><duration>100</duration><in>129200.0</in><out>129300.0</out><start>129200.0</start><end>129300.0</end><marker><comment>Beat marker</comment><in>129200.0</in><out>129200.0</out></marker></clipitem><clipitem><name>Beat 325</name><duration>100</duration><in>129600.0</in><out>129700.0</out><start>129600.0</start><end>129700.0</end><marker><comment>Beat marker</comment><in>129600.0</in><out>129600.0</out></marker></clipitem><clipitem><name>Beat 326</name><duration>100</duration><in>130000.0</in><out>130100.0</out><start>130000.0</start><end>130100.0</end><marker><comment>Beat marker</comment><in>130000.0</in><out>130000.0</out></marker></clipitem><clipitem><name>Beat 327</name><duration>100</duration><in>130400.0</in><out>130500.0</out><start>130400.0</start><end>130500.0</end><marker><comment>Beat marker</comment><in>130400.0</in><out>130400.0</out></marker></clipitem><clipitem><name>Beat 328</name><duration>100</duration><in>130800.0</in><out>130900.0</out><start>130800.0</start><end>130900.0</end><marker><comment>Beat marker</comment><in>130800.0</in><out>130800.0</out></marker></clipitem><clipitem><name>Beat 329</name><duration>100</duration><in>131200.0</in><out>131300.0</out><start>131200.0</start><end>131300.0</end><marker><comment>Beat marker</comment><in>131200.0</in><out>131200.0</out></marker></clipitem><clipitem><name>Beat 330</name><duration>100</duration><in>131600.0</in><out>131700.0</out><start>131600.0</start><end>131700.0</end><marker><comment>Beat marker</comment><in>131600.0</in><out>131600.0</out></marker></clipitem><clipitem><name>Beat 331</name><duration>100</duration><in>132000.0</in><out>132100.0</out><start>132000.0</start><end>132100.0</end><marker><comment>Beat marker</comment><in>132000.0</in><out>132000.0</out></marker></clipitem><clipitem><name>Beat 332</name><duration>100</duration><in>132400.0</in><out>132500.0</out><start>132400.0</start><end>132500.0</end><marker><comment>Beat marker</comment><in>132400.0</in><out>132400.0</out></marker></clipitem><clipitem><name>Beat 333</name><duration>100</duration><in>132800.0</in><out>132900.0</out><start>132800.0</start><end>132900.0</end><marker><comment>Beat marker</comment><in>132800.0</in><out>132800.0</out></marker></clipitem><clipitem><name>Beat 334</name><duration>100</duration><in>133200.0</in><out>133300.0</out><start>133200.0</start><end>133300.0</end><marker><comment>Beat marker</comment><in>133200.0</in><out>133200.0</out></marker></clipitem><clipitem><name>Beat 335</name><duration>100</duration><in>133600.0</in><out>133700.0</out><start>133600.0</start><end>133700.0</end><marker><comment>Beat marker</comment><in>133600.0</in><out>133600.0</out></marker></clipitem><clipitem><name>Beat 336</name><duration>100</duration><in>134000.0</in><out>134100.0</out><start>134000.0</start><end>134100.0</end><marker><comment>Beat marker</comment><in>134000.0</in><out>134000.0</out></marker></clipitem><clipitem><name>Beat 337</name><duration>100</duration><in>134400.0</in><out>134500.0</out><start>134400.0</start><end>134500.0</end><marker><comment>Beat marker</comment><in>134400.0</in><out>134400.0</out></marker></clipitem><clipitem><name>Beat 338</name><duration>100</duration><in>134800.0</in><out>134900.0</out><start>134800.0</start><end>134900.0</end><marker><comment>Beat marker</comment><in>134800.0</in><out>134800.0</out></marker></clipitem><clipitem><name>Beat 339</name><duration>100</duration><in>135200.0</in><out>135300.0</out><start>135200.0</start><end>135300.0</end><marker><comment>Beat marker</comment><in>135200.0</in><out>135200.0</out></marker></clipitem><clipitem><name>Beat 340</name><duration>100</duration><in>135600.0</in><out>135700.0</out><start>135600.0</start><end>135700.0</end><marker><comment>Beat marker</comment><in>135600.0</in><out>135600.0</out></marker></clipitem><clipitem><name>Beat 341</name><duration>100</duration><in>136000.0</in><out>136100.0</out><start>136000.0</start><end>136100.0</end><marker><comment>Beat marker</comment><in>136000.0</in><out>136000.0</out></marker></clipitem><clipitem><name>Beat 342</name><duration>100</duration><in>136400.0</in><out>136500.0</out><start>136400.0</start><end>136500.0</end><marker><comment>Beat marker</comment><in>136400.0</in><out>136400.0</out></marker></clipitem><clipitem><name>Beat 343</name><duration>100</duration><in>136800.0</in><out>136900.0</out><start>136800.0</start><end>136900.0</end><marker><comment>Beat marker</comment><in>136800.0</in><out>136800.0</out></marker></clipitem><clipitem><name>Beat 344</name><duration>100</duration><in>137200.0</in><out>137300.0</out><start>137200.0</start><end>137300.0</end><marker><comment>Beat marker</comment><in>137200.0</in><out>137200.0</out></marker></clipitem><clipitem><name>Beat 345</name><duration>100</duration><in>137600.0</in><out>137700.0</out><start>137600.0</start><end>137700.0</end><marker><comment>Beat marker</comment><in>137600.0</in><out>137600.0</out></marker></clipitem><clipitem><name>Beat 346</name><duration>100</duration><in>138000.0</in><out>138100.0</out><start>138000.0</start><end>138100.0</end><marker><comment>Beat marker</comment><in>138000.0</in><out>138000.0</out></marker></clipitem><clipitem><name>Beat 347</name><duration>100</duration><in>138400.0</in><out>138500.0</out><start>138400.0</start><end>138500.0</end><marker><comment>Beat marker</comment><in>138400.0</in><out>138400.0</out></marker></clipitem><clipitem><name>Beat 348</name><duration>100</duration><in>138800.0</in><out>138900.0</out><start>138800.0</start><end>138900.0</end><marker><comment>Beat marker</comment><in>138800.0</in><out>138800.0</out></marker></clipitem><clipitem><name>Beat 349</name><duration>100</duration><in>139200.0</in><out>139300.0</out><start>139200.0</start><end>139300.0</end><marker><comment>Beat marker</comment><in>139200.0</in><out>139200.0</out></marker></clipitem><clipitem><name>Beat 350</name><duration>100</duration><in>139600.0</in><out>139700.0</out><start>139600.0</start><end>139700.0</end><marker><comment>Beat marker</comment><in>139600.0</in><out>139600.0</out></marker></clipitem><clipitem><name>Beat 351</name><duration>100</duration><in>140000.0</in><out>140100.0</out><start>140000.0</start><end>140100.0</end><marker><comment>Beat marker</comment><in>140000.0</in><out>140000.0</out></marker></clipitem><clipitem><name>Beat 352</name><duration>100</duration><in>140400.0</in><out>140500.0</out><start>140400.0</start><end>140500.0</end><marker><comment>Beat marker</comment><in>140400.0</in><out>140400.0</out></marker></clipitem><clipitem><name>Beat 353</name><duration>100</duration><in>140800.0</in><out>140900.0</out><start>140800.0</start><end>140900.0</end><marker><comment>Beat marker</comment><in>140800.0</in><out>140800.0</out></marker></clipitem><clipitem><name>Beat 354</name><duration>100</duration><in>141200.0</in><out>141300.0</out><start>141200.0</start><end>141300.0</end><marker><comment>Beat marker</comment><in>141200.0</in><out>141200.0</out></marker></clipitem><clipitem><name>Beat 355</name><duration>100</duration><in>141600.0</in><out>141700.0</out><start>141600.0</start><end>141700.0</end><marker><comment>Beat marker</comment><in>141600.0</in><out>141600.0</out></marker></clipitem><clipitem><name>Beat 356</name><duration>100</duration><in>142000.0</in><out>142100.0</out><start>142000.0</start><end>142100.0</end><marker><comment>Beat marker</comment><in>142000.0</in><out>142000.0</out></marker></clipitem><clipitem><name>Beat 357</name><duration>100</duration><in>142400.0</in><out>142500.0</out><start>142400.0</start><end>142500.0</end><marker><comment>Beat marker</comment><in>142400.0</in><out>142400.0</out></marker></clipitem><clipitem><name>Beat 358</name><duration>100</duration><in>142800.0</in><out>142900.0</out><start>142800.0</start><end>142900.0</end><marker><comment>Beat marker</comment><in>142800.0</in><out>142800.0</out></marker></clipitem><clipitem><name>Beat 359</name><duration>100</duration><in>143200.0</in><out>143300.0</out><start>143200.0</start><end>143300.0</end><marker><comment>Beat marker</comment><in>143200.0</in><out>143200.0</out></marker></clipitem><clipitem><name>Beat 360</name><duration>100</duration><in>143600.0</in><out>143700.0</out><start>143600.0</start><end>143700.0</end><marker><comment>Beat marker</comment><in>143600.0</in><out>143600.0</out></marker></clipitem><clipitem><name>Beat 361</name><duration>100</duration><in>144000.0</in><out>144100.0</out><start>144000.0</start><end>144100.0</end><marker><comment>Beat marker</comment><in>144000.0</in><out>144000.0</out></marker></clipitem><clipitem><name>Beat 362</name><duration>100</duration><in>144400.0</in><out>144500.0</out><start>144400.0</start><end>144500.0</end><marker><comment>Beat marker</comment><in>144400.0</in><out>144400.0</out></marker></clipitem><clipitem><name>Beat 363</name><duration>100</duration><in>144800.0</in><out>144900.0</out><start>144800.0</start><end>144900.0</end><marker><comment>Beat marker</comment><in>144800.0</in><out>144800.0</out></marker></clipitem><clipitem><name>Beat 364</name><duration>100</duration><in>145200.0</in><out>145300.0</out><start>145200.0</start><end>145300.0</end><marker><comment>Beat marker</comment><in>145200.0</in><out>145200.0</out></marker></clipitem><clipitem><name>Beat 365</name><duration>100</duration><in>145600.0</in><out>145700.0</out><start>145600.0</start><end>145700.0</end><marker><comment>Beat marker</comment><in>145600.0</in><out>145600.0</out></marker></clipitem><clipitem><name>Beat 366</name><duration>100</duration><in>146000.0</in><out>146100.0</out><start>146000.0</start><end>146100.0</end><marker><comment>Beat marker</comment><in>146000.0</in><out>146000.0</out></marker></clipitem><clipitem><name>Beat 367</name><duration>100</duration><in>146400.0</in><out>146500.0</out><start>146400.0</start><end>146500.0</end><marker><comment>Beat marker</comment><in>146400.0</in><out>146400.0</out></marker></clipitem><clipitem><name>Beat 368</name><duration>100</duration><in>146800.0</in><out>146900.0</out><start>146800.0</start><end>146900.0</end><marker><comment>Beat marker</comment><in>146800.0</in><out>146800.0</out></marker></clipitem><clipitem><name>Beat 369</name><duration>100</duration><in>147200.0</in><out>147300.0</out><start>147200.0</start><end>147300.0</end><marker><comment>Beat marker</comment><in>147200.0</in><out>147200.0</out></marker></clipitem><clipitem><name>Beat 370</name><duration>100</duration><in>147600.0</in><out>147700.0</out><start>147600.0</start><end>147700.0</end><marker><comment>Beat marker</comment><in>147600.0</in><out>147600.0</out></marker></clipitem><clipitem><name>Beat 371</name><duration>100</duration><in>148000.0</in><out>148100.0</out><start>148000.0</start><end>148100.0</end><marker><comment>Beat marker</comment><in>148000.0</in><out>148000.0</out></marker></clipitem><clipitem><name>Beat 372</name><duration>100</duration><in>148400.0</in><out>148500.0</out><start>148400.0</start><end>148500.0</end><marker><comment>Beat marker</comment><in>148400.0</in><out>148400.0</out></marker></clipitem><clipitem><name>Beat 373</name><duration>100</duration><in>148800.0</in><out>148900.0</out><start>148800.0</start><end>148900.0</end><marker><comment>Beat marker</comment><in>148800.0</in><out>148800.0</out></marker></clipitem><clipitem><name>Beat 374</name><duration>100</duration><in>149200.0</in><out>149300.0</out><start>149200.0</start><end>149300.0</end><marker><comment>Beat marker</comment><in>149200.0</in><out>149200.0</out></marker></clipitem><clipitem><name>Beat 375</name><duration>100</duration><in>149600.0</in><out>149700.0</out><start>149600.0</start><end>149700.0</end><marker><comment>Beat marker</comment><in>149600.0</in><out>149600.0</out></marker></clipitem><clipitem><name>Beat 376</name><duration>100</duration><in>150000.0</in><out>150100.0</out><start>150000.0</start><end>150100.0</end><marker><comment>Beat marker</comment><in>150000.0</in><out>150000.0</out></marker></clipitem><clipitem><name>Beat 377</name><duration>100</duration><in>150400.0</in><out>150500.0</out><start>150400.0</start><end>150500.0</end><marker><comment>Beat marker</comment><in>150400.0</in><out>150400.0</out></marker></clipitem><clipitem><name>Beat 378</name><duration>100</duration><in>150800.0</in><out>150900.0</out><start>150800.0</start><end>150900.0</end><marker><comment>Beat marker</comment><in>150800.0</in><out>150800.0</out></marker></clipitem><clipitem><name>Beat 379</name><duration>100</duration><in>151200.0</in><out>151300.0</out><start>151200.0</start><end>151300.0</end><marker><comment>Beat marker</comment><in>151200.0</in><out>151200.0</out></marker></clipitem><clipitem><name>Beat 380</name><duration>100</duration><in>151600.0</in><out>151700.0</out><start>151600.0</start><end>151700.0</end><marker><comment>Beat marker</comment><in>151600.0</in><out>151600.0</out></marker></clipitem><clipitem><name>Beat 381</name><duration>100</duration><in>152000.0</in><out>152100.0</out><start>152000.0</start><end>152100.0</end><marker><comment>Beat marker</comment><in>152000.0</in><out>152000.0</out></marker></clipitem><clipitem><name>Beat 382</name><duration>100</duration><in>152400.0</in><out>152500.0</out><start>152400.0</start><end>152500.0</end><marker><comment>Beat marker</comment><in>152400.0</in><out>152400.0</out></marker></clipitem><clipitem><name>Beat 383</name><duration>100</duration><in>152800.0</in><out>152900.0</out><start>152800.0</start><end>152900.0</end><marker><comment>Beat marker</comment><in>152800.0</in><out>152800.0</out></marker></clipitem><clipitem><name>Beat 384</name><duration>100</duration><in>153200.0</in><out>153300.0</out><start>153200.0</start><end>153300.0</end><marker><comment>Beat marker</comment><in>153200.0</in><out>153200.0</out></marker></clipitem><clipitem><name>Beat 385</name><duration>100</duration><in>153600.0</in><out>153700.0</out><start>153600.0</start><end>153700.0</end><marker><comment>Beat marker</comment><in>153600.0</in><out>153600.0</out></marker></clipitem><clipitem><name>Beat 386</name><duration>100</duration><in>154000.0</in><out>154100.0</out><start>154000.0</start><end>154100.0</end><marker><comment>Beat marker</comment><in>154000.0</in><out>154000.0</out></marker></clipitem><clipitem><name>Beat 387</name><duration>100</duration><in>154400.0</in><out>154500.0</out><start>154400.0</start><end>154500.0</end><marker><comment>Beat marker</comment><in>154400.0</in><out>154400.0</out></marker></clipitem><clipitem><name>Beat 388</name><duration>100</duration><in>154800.0</in><out>154900.0</out><start>154800.0</start><end>154900.0</end><marker><comment>Beat marker</comment><in>154800.0</in><out>154800.0</out></marker></clipitem><clipitem><name>Beat 389</name><duration>100</duration><in>155200.0</in><out>155300.0</out><start>155200.0</start><end>155300.0</end><marker><comment>Beat marker</comment><in>155200.0</in><out>155200.0</out></marker></clipitem><clipitem><name>Beat 390</name><duration>100</duration><in>155600.0</in><out>155700.0</out><start>155600.0</start><end>155700.0</end><marker><comment>Beat marker</comment><in>155600.0</in><out>155600.0</out></marker></clipitem><clipitem><name>Beat 391</name><duration>100</duration><in>156000.0</in><out>156100.0</out><start>156000.0</start><end>156100.0</end><marker><comment>Beat marker</comment><in>156000.0</in><out>156000.0</out></marker></clipitem><clipitem><name>Beat 392</name><duration>100</duration><in>156400.0</in><out>156500.0</out><start>156400.0</start><end>156500.0</end><marker><comment>Beat marker</comment><in>156400.0</in><out>156400.0</out></marker></clipitem><clipitem><name>Beat 393</name><duration>100</duration><in>156800.0</in><out>156900.0</out><start>156800.0</start><end>156900.0</end><marker><comment>Beat marker</comment><in>156800.0</in><out>156800.0</out></marker></clipitem><clipitem><name>Beat 394</name><duration>100</duration><in>157200.0</in><out>157300.0</out><start>157200.0</start><end>157300.0</end><marker><comment>Beat marker</comment><in>157200.0</in><out>157200.0</out></marker></clipitem><clipitem><name>Beat 395</name><duration>100</duration><in>157600.0</in><out>157700.0</out><start>157600.0</start><end>157700.0</end><marker><comment>Beat marker</comment><in>157600.0</in><out>157600.0</out></marker></clipitem><clipitem><name>Beat 396</name><duration>100</duration><in>158000.0</in><out>158100.0</out><start>158000.0</start><end>158100.0</end><marker><comment>Beat marker</comment><in>158000.0</in><out>158000.0</out></marker></clipitem><clipitem><name>Beat 397</name><duration>100</duration><in>158400.0</in><out>158500.0</out><start>158400.0</start><end>158500.0</end><marker><comment>Beat marker</comment><in>158400.0</in><out>158400.0</out></marker></clipitem><clipitem><name>Beat 398</name><duration>100</duration><in>158800.0</in><out>158900.0</out><start>158800.0</start><end>158900.0</end><marker><comment>Beat marker</comment><in>158800.0</in><out>158800.0</out></marker></clipitem><clipitem><name>Beat 399</name><duration>100</duration><in>159200.0</in><out>159300.0</out><start>159200.0</start><end>159300.0</end><marker><comment>Beat marker</comment><in>159200.0</in><out>159200.0</out></marker></clipitem><clipitem><name>Beat 400</name><duration>100</duration><in>159600.0</in><out>159700.0</out><start>159600.0</start><end>159700.0</end><marker><comment>Beat marker</comment><in>159600.0</in><out>159600.0</out></marker></clipitem><clipitem><name>Beat 401</name><duration>100</duration><in>160000.0</in><out>160100.0</out><start>160000.0</start><end>160100.0</end><marker><comment>Beat marker</comment><in>160000.0</in><out>160000.0</out></marker></clipitem><clipitem><name>Beat 402</name><duration>100</duration><in>160400.0</in><out>160500.0</out><start>160400.0</start><end>160500.0</end><marker><comment>Beat marker</comment><in>160400.0</in><out>160400.0</out></marker></clipitem><clipitem><name>Beat 403</name><duration>100</duration><in>160800.0</in><out>160900.0</out><start>160800.0</start><end>160900.0</end><marker><comment>Beat marker</comment><in>160800.0</in><out>160800.0</out></marker></clipitem><clipitem><name>Beat 404</name><duration>100</duration><in>161200.0</in><out>161300.0</out><start>161200.0</start><end>161300.0</end><marker><comment>Beat marker</comment><in>161200.0</in><out>161200.0</out></marker></clipitem><clipitem><name>Beat 405</name><duration>100</duration><in>161600.0</in><out>161700.0</out><start>161600.0</start><end>161700.0</end><marker><comment>Beat marker</comment><in>161600.0</in><out>161600.0</out></marker></clipitem><clipitem><name>Beat 406</name><duration>100</duration><in>162000.0</in><out>162100.0</out><start>162000.0</start><end>162100.0</end><marker><comment>Beat marker</comment><in>162000.0</in><out>162000.0</out></marker></clipitem><clipitem><name>Beat 407</name><duration>100</duration><in>162400.0</in><out>162500.0</out><start>162400.0</start><end>162500.0</end><marker><comment>Beat marker</comment><in>162400.0</in><out>162400.0</out></marker></clipitem><clipitem><name>Beat 408</name><duration>100</duration><in>162800.0</in><out>162900.0</out><start>162800.0</start><end>162900.0</end><marker><comment>Beat marker</comment><in>162800.0</in><out>162800.0</out></marker></clipitem><clipitem><name>Beat 409</name><duration>100</duration><in>163200.0</in><out>163300.0</out><start>163200.0</start><end>163300.0</end><marker><comment>Beat marker</comment><in>163200.0</in><out>163200.0</out></marker></clipitem><clipitem><name>Beat 410</name><duration>100</duration><in>163600.0</in><out>163700.0</out><start>163600.0</start><end>163700.0</end><marker><comment>Beat marker</comment><in>163600.0</in><out>163600.0</out></marker></clipitem><clipitem><name>Beat 411</name><duration>100</duration><in>164000.0</in><out>164100.0</out><start>164000.0</start><end>164100.0</end><marker><comment>Beat marker</comment><in>164000.0</in><out>164000.0</out></marker></clipitem><clipitem><name>Beat 412</name><duration>100</duration><in>164400.0</in><out>164500.0</out><start>164400.0</start><end>164500.0</end><marker><comment>Beat marker</comment><in>164400.0</in><out>164400.0</out></marker></clipitem><clipitem><name>Beat 413</name><duration>100</duration><in>164800.0</in><out>164900.0</out><start>164800.0</start><end>164900.0</end><marker><comment>Beat marker</comment><in>164800.0</in><out>164800.0</out></marker></clipitem><clipitem><name>Beat 414</name><duration>100</duration><in>165200.0</in><out>165300.0</out><start>165200.0</start><end>165300.0</end><marker><comment>Beat marker</comment><in>165200.0</in><out>165200.0</out></marker></clipitem><clipitem><name>Beat 415</name><duration>100</duration><in>165600.0</in><out>165700.0</out><start>165600.0</start><end>165700.0</end><marker><comment>Beat marker</comment><in>165600.0</in><out>165600.0</out></marker></clipitem><clipitem><name>Beat 416</name><duration>100</duration><in>166000.0</in><out>166100.0</out><start>166000.0</start><end>166100.0</end><marker><comment>Beat marker</comment><in>166000.0</in><out>166000.0</out></marker></clipitem><clipitem><name>Beat 417</name><duration>100</duration><in>166400.0</in><out>166500.0</out><start>166400.0</start><end>166500.0</end><marker><comment>Beat marker</comment><in>166400.0</in><out>166400.0</out></marker></clipitem><clipitem><name>Beat 418</name><duration>100</duration><in>166800.0</in><out>166900.0</out><start>166800.0</start><end>166900.0</end><marker><comment>Beat marker</comment><in>166800.0</in><out>166800.0</out></marker></clipitem><clipitem><name>Beat 419</name><duration>100</duration><in>167200.0</in><out>167300.0</out><start>167200.0</start><end>167300.0</end><marker><comment>Beat marker</comment><in>167200.0</in><out>167200.0</out></marker></clipitem><clipitem><name>Beat 420</name><duration>100</duration><in>167600.0</in><out>167700.0</out><start>167600.0</start><end>167700.0</end><marker><comment>Beat marker</comment><in>167600.0</in><out>167600.0</out></marker></clipitem><clipitem><name>Beat 421</name><duration>100</duration><in>168000.0</in><out>168100.0</out><start>168000.0</start><end>168100.0</end><marker><comment>Beat marker</comment><in>168000.0</in><out>168000.0</out></marker></clipitem><clipitem><name>Beat 422</name><duration>100</duration><in>168400.0</in><out>168500.0</out><start>168400.0</start><end>168500.0</end><marker><comment>Beat marker</comment><in>168400.0</in><out>168400.0</out></marker></clipitem><clipitem><name>Beat 423</name><duration>100</duration><in>168800.0</in><out>168900.0</out><start>168800.0</start><end>168900.0</end><marker><comment>Beat marker</comment><in>168800.0</in><out>168800.0</out></marker></clipitem><clipitem><name>Beat 424</name><duration>100</duration><in>169200.0</in><out>169300.0</out><start>169200.0</start><end>169300.0</end><marker><comment>Beat marker</comment><in>169200.0</in><out>169200.0</out></marker></clipitem><clipitem><name>Beat 425</name><duration>100</duration><in>169600.0</in><out>169700.0</out><start>169600.0</start><end>169700.0</end><marker><comment>Beat marker</comment><in>169600.0</in><out>169600.0</out></marker></clipitem><clipitem><name>Beat 426</name><duration>100</duration><in>170000.0</in><out>170100.0</out><start>170000.0</start><end>170100.0</end><marker><comment>Beat marker</comment><in>170000.0</in><out>170000.0</out></marker></clipitem><clipitem><name>Beat 427</name><duration>100</duration><in>170400.0</in><out>170500.0</out><start>170400.0</start><end>170500.0</end><marker><comment>Beat marker</comment><in>170400.0</in><out>170400.0</out></marker></clipitem><clipitem><name>Beat 428</name><duration>100</duration><in>170800.0</in><out>170900.0</out><start>170800.0</start><end>170900.0</end><marker><comment>Beat marker</comment><in>170800.0</in><out>170800.0</out></marker></clipitem><clipitem><name>Beat 429</name><duration>100</duration><in>171200.0</in><out>171300.0</out><start>171200.0</start><end>171300.0</end><marker><comment>Beat marker</comment><in>171200.0</in><out>171200.0</out></marker></clipitem><clipitem><name>Beat 430</name><duration>100</duration><in>171600.0</in><out>171700.0</out><start>171600.0</start><end>171700.0</end><marker><comment>Beat marker</comment><in>171600.0</in><out>171600.0</out></marker></clipitem><clipitem><name>Beat 431</name><duration>100</duration><in>172000.0</in><out>172100.0</out><start>172000.0</start><end>172100.0</end><marker><comment>Beat marker</comment><in>172000.0</in><out>172000.0</out></marker></clipitem><clipitem><name>Beat 432</name><duration>100</duration><in>172400.0</in><out>172500.0</out><start>172400.0</start><end>172500.0</end><marker><comment>Beat marker</comment><in>172400.0</in><out>172400.0</out></marker></clipitem><clipitem><name>Beat 433</name><duration>100</duration><in>172800.0</in><out>172900.0</out><start>172800.0</start><end>172900.0</end><marker><comment>Beat marker</comment><in>172800.0</in><out>172800.0</out></marker></clipitem><clipitem><name>Beat 434</name><duration>100</duration><in>173200.0</in><out>173300.0</out><start>173200.0</start><end>173300.0</end><marker><comment>Beat marker</comment><in>173200.0</in><out>173200.0</out></marker></clipitem><clipitem><name>Beat 435</name><duration>100</duration><in>173600.0</in><out>173700.0</out><start>173600.0</start><end>173700.0</end><marker><comment>Beat marker</comment><in>173600.0</in><out>173600.0</out></marker></clipitem><clipitem><name>Beat 436</name><duration>100</duration><in>174000.0</in><out>174100.0</out><start>174000.0</start><end>174100.0</end><marker><comment>Beat marker</comment><in>174000.0</in><out>174000.0</out></marker></clipitem><clipitem><name>Beat 437</name><duration>100</duration><in>174400.0</in><out>174500.0</out><start>174400.0</start><end>174500.0</end><marker><comment>Beat marker</comment><in>174400.0</in><out>174400.0</out></marker></clipitem><clipitem><name>Beat 438</name><duration>100</duration><in>174800.0</in><out>174900.0</out><start>174800.0</start><end>174900.0</end><marker><comment>Beat marker</comment><in>174800.0</in><out>174800.0</out></marker></clipitem><clipitem><name>Beat 439</name><duration>100</duration><in>175200.0</in><out>175300.0</out><start>175200.0</start><end>175300.0</end><marker><comment>Beat marker</comment><in>175200.0</in><out>175200.0</out></marker></clipitem><clipitem><name>Beat 440</name><duration>100</duration><in>175600.0</in><out>175700.0</out><start>175600.0</start><end>175700.0</end><marker><comment>Beat marker</comment><in>175600.0</in><out>175600.0</out></marker></clipitem><clipitem><name>Beat 441</name><duration>100</duration><in>176000.0</in><out>176100.0</out><start>176000.0</start><end>176100.0</end><marker><comment>Beat marker</comment><in>176000.0</in><out>176000.0</out></marker></clipitem><clipitem><name>Beat 442</name><duration>100</duration><in>176400.0</in><out>176500.0</out><start>176400.0</start><end>176500.0</end><marker><comment>Beat marker</comment><in>176400.0</in><out>176400.0</out></marker></clipitem><clipitem><name>Beat 443</name><duration>100</duration><in>176800.0</in><out>176900.0</out><start>176800.0</start><end>176900.0</end><marker><comment>Beat marker</comment><in>176800.0</in><out>176800.0</out></marker></clipitem><clipitem><name>Beat 444</name><duration>100</duration><in>177200.0</in><out>177300.0</out><start>177200.0</start><end>177300.0</end><marker><comment>Beat marker</comment><in>177200.0</in><out>177200.0</out></marker></clipitem><clipitem><name>Beat 445</name><duration>100</duration><in>177600.0</in><out>177700.0</out><start>177600.0</start><end>177700.0</end><marker><comment>Beat marker</comment><in>177600.0</in><out>177600.0</out></marker></clipitem><clipitem><name>Beat 446</name><duration>100</duration><in>178000.0</in><out>178100.0</out><start>178000.0</start><end>178100.0</end><marker><comment>Beat marker</comment><in>178000.0</in><out>178000.0</out></marker></clipitem><clipitem><name>Beat 447</name><duration>100</duration><in>178400.0</in><out>178500.0</out><start>178400.0</start><end>178500.0</end><marker><comment>Beat marker</comment><in>178400.0</in><out>178400.0</out></marker></clipitem><clipitem><name>Beat 448</name><duration>100</duration><in>178800.0</in><out>178900.0</out><start>178800.0</start><end>178900.0</end><marker><comment>Beat marker</comment><in>178800.0</in><out>178800.0</out></marker></clipitem><clipitem><name>Beat 449</name><duration>100</duration><in>179200.0</in><out>179300.0</out><start>179200.0</start><end>179300.0</end><marker><comment>Beat marker</comment><in>179200.0</in><out>179200.0</out></marker></clipitem><clipitem><name>Beat 450</name><duration>100</duration><in>179600.0</in><out>179700.0</out><start>179600.0</start><end>179700.0</end><marker><comment>Beat marker</comment><in>179600.0</in><out>179600.0</out></marker></clipitem></track></video></media></sequence></children></project></xmeml>